<?xml version="1.0" encoding="UTF-8"?>
<svg version="1.1" xmlns="http://www.w3.org/2000/svg" width="1122" height="557">
<path d="M0 0 C3.01148963 -0.37374616 3.01148963 -0.37374616 6.97603989 -0.3719368 C7.70592743 -0.37569793 8.43581497 -0.37945906 9.18782032 -0.38333416 C11.65891726 -0.39235098 14.12944847 -0.37978477 16.6005249 -0.36749268 C18.37989053 -0.36951506 20.15925507 -0.37285211 21.93861604 -0.37739825 C26.84806154 -0.3860861 31.75731933 -0.37594402 36.66674852 -0.36285591 C41.95386195 -0.35199724 47.24095726 -0.35836464 52.52807617 -0.36264038 C62.89451461 -0.36828658 73.26087937 -0.35793411 83.62730524 -0.34235242 C95.69147123 -0.32485032 107.75562274 -0.32339393 119.81979945 -0.32273683 C141.34374945 -0.32104695 162.86766581 -0.30521122 184.39160156 -0.28125 C205.2900419 -0.25800188 226.1884609 -0.24382711 247.08691406 -0.24023438 C249.0166104 -0.23990022 249.0166104 -0.23990022 250.9852905 -0.23955932 C253.57679374 -0.23911673 256.16829697 -0.23867471 258.75980021 -0.23823325 C260.03809442 -0.23801369 261.31638864 -0.23779412 262.63341904 -0.2375679 C263.90842895 -0.23735192 265.18343886 -0.23713593 266.49708544 -0.2369134 C286.39143006 -0.23321292 306.28577122 -0.22185208 326.18011205 -0.2094375 C333.39725019 -0.20500029 340.614388 -0.20156279 347.83152696 -0.19881538 C359.28214755 -0.19438406 370.73275539 -0.18661557 382.18336794 -0.17204097 C387.41741613 -0.16543038 392.65145308 -0.16036748 397.88550568 -0.15958023 C402.67464674 -0.15879406 407.46375935 -0.15339478 412.25289157 -0.14426073 C413.98778411 -0.14174987 415.72268004 -0.1409205 417.4575741 -0.14191952 C419.81194796 -0.14301364 422.1662324 -0.13799652 424.52059555 -0.13142776 C425.82954654 -0.13018127 427.13849754 -0.12893477 428.48711371 -0.1276505 C431.75680064 -0.00883733 434.7907504 0.3889453 438 1 C438.82757813 1.10699219 439.65515625 1.21398437 440.5078125 1.32421875 C455.29512237 3.37678564 469.74822805 8.1806575 483 15 C483 15.66 483 16.32 483 17 C484.175625 17.309375 484.175625 17.309375 485.375 17.625 C490.24735302 19.4731339 494.77926645 21.9303756 499 25 C499 25.66 499 26.32 499 27 C499.680625 27.185625 500.36125 27.37125 501.0625 27.5625 C505.21162482 29.59292278 507.85667107 32.676862 511 36 C512.19109375 37.16982422 512.19109375 37.16982422 513.40625 38.36328125 C516.99254316 42.00898589 520.22212772 45.94398412 523.5 49.8671875 C525.81075559 52.33977233 525.81075559 52.33977233 528.8125 51.8203125 C529.534375 51.54960938 530.25625 51.27890625 531 51 C532.23562793 46.22349539 532.10980369 41.57720028 532.0625 36.68359375 C532.05871338 35.79011734 532.05492676 34.89664093 532.05102539 33.97608948 C532.03884076 31.12984326 532.02021141 28.28369985 532 25.4375 C531.97341075 21.68620058 531.95341558 17.93495194 531.9375 14.18359375 C531.92920166 13.32309921 531.92090332 12.46260468 531.91235352 11.57603455 C531.90905029 10.7716243 531.90574707 9.96721405 531.90234375 9.13842773 C531.89710693 8.43403061 531.89187012 7.72963348 531.88647461 7.00389099 C532.00610769 4.89219033 532.46344564 3.04077789 533 1 C539.56321422 0.24037511 546.01657672 -0.14594641 552.62145042 -0.13422108 C553.54013552 -0.13657331 554.45882062 -0.13892554 555.40534467 -0.14134905 C558.47030498 -0.14798294 561.53522235 -0.14758254 564.60018921 -0.14717102 C566.82511224 -0.15047306 569.05003467 -0.15419935 571.27495635 -0.1583125 C577.378688 -0.16830041 583.48240983 -0.17204405 589.5861485 -0.17470181 C595.49562751 -0.17821199 601.40509907 -0.18635971 607.31457359 -0.19424575 C623.1329083 -0.21504122 638.95124482 -0.22554931 654.76959001 -0.23437535 C662.25166132 -0.2385859 669.73373184 -0.2438071 677.21580248 -0.24905988 C702.82837766 -0.26693925 728.44095307 -0.28193832 754.05353355 -0.28938007 C755.65981375 -0.28985483 757.26609395 -0.29033072 758.87237415 -0.29080774 C759.66892792 -0.29104411 760.46548169 -0.29128049 761.28617345 -0.29152403 C765.32180444 -0.29272521 769.35743542 -0.29394067 773.39306641 -0.29516602 C774.19393988 -0.29540617 774.99481335 -0.29564632 775.81995571 -0.29589374 C801.81916136 -0.30379662 827.81832154 -0.32725432 853.81750732 -0.35972196 C881.30854635 -0.39399004 908.79955875 -0.41372799 936.29061949 -0.41702431 C939.30573186 -0.41744186 942.32084422 -0.41792142 945.33595657 -0.41844749 C946.07835684 -0.41857069 946.8207571 -0.41869388 947.58565434 -0.4188208 C959.54757172 -0.42115563 971.50943629 -0.43683021 983.47133482 -0.45728934 C995.48106453 -0.47750546 1007.49073057 -0.48304451 1019.50047414 -0.47351871 C1026.01031086 -0.46895469 1032.51997553 -0.47098203 1039.02978897 -0.49028015 C1044.98189184 -0.50777359 1050.93369536 -0.50702751 1056.88580079 -0.49138286 C1059.04572387 -0.48898574 1061.20566695 -0.49343784 1063.36555927 -0.50521151 C1066.28860906 -0.52016595 1069.21057532 -0.51077268 1072.13359642 -0.49498463 C1072.98336774 -0.50520683 1073.83313906 -0.51542904 1074.70866102 -0.52596101 C1078.36398267 -0.48250079 1080.54072469 -0.33979491 1083.52321368 1.86680001 C1085.43516811 4.62859507 1085.49570972 6.32137278 1085.48774719 9.66860962 C1085.49469101 10.82395706 1085.50163483 11.9793045 1085.50878906 13.16966248 C1085.495979 14.43319046 1085.48316895 15.69671844 1085.4699707 16.99853516 C1085.4704796 18.34561838 1085.47273594 19.69270191 1085.47660828 21.03977966 C1085.48202708 24.69471855 1085.46261925 28.34915045 1085.43850732 32.00399828 C1085.41721758 35.82673606 1085.41780642 39.64947187 1085.41581726 43.47225952 C1085.40937018 49.8897983 1085.38812286 56.30714644 1085.35668945 62.72460938 C1085.31636545 70.96816549 1085.29899705 79.21159748 1085.28938007 87.45524025 C1085.28108567 94.53693749 1085.26384793 101.61860832 1085.24434257 108.70028257 C1085.23827252 110.97984046 1085.23313205 113.25939936 1085.2279911 115.5389595 C1085.21922011 119.11599312 1085.20492321 122.69296504 1085.1862812 126.2699604 C1085.17721872 128.21375937 1085.17297717 130.15757893 1085.16885376 132.10139465 C1085.16169846 133.25110245 1085.15454315 134.40081024 1085.14717102 135.58535767 C1085.14289754 136.58860392 1085.13862406 137.59185017 1085.13422108 138.62549782 C1085 141 1085 141 1084 143 C1083.9307136 145.24314711 1084.00248334 147.46781485 1084.0625 149.7109375 C1084.00031638 151.9884126 1083.61749079 153.8150326 1083 156 C1082.68332165 157.41573851 1082.37099436 158.83245567 1082.0625 160.25 C1080.71372159 166.32449834 1079.36883033 172.22597606 1077 178 C1076.5978125 179.5778125 1076.5978125 179.5778125 1076.1875 181.1875 C1074.66002346 186.09150362 1072.3897707 190.46673267 1070 195 C1069.34 195 1068.68 195 1068 195 C1067.896875 195.721875 1067.79375 196.44375 1067.6875 197.1875 C1066.30599272 202.83912071 1062.66688426 206.61762613 1059 211 C1058.25752207 212.11625963 1057.52758776 213.24099889 1056.8125 214.375 C1056.214375 215.24125 1055.61625 216.1075 1055 217 C1054.34 217 1053.68 217 1053 217 C1052.34 218.32 1051.68 219.64 1051 221 C1050.34 221 1049.68 221 1049 221 C1048.75894531 221.5671875 1048.51789063 222.134375 1048.26953125 222.71875 C1042.77721235 232.58802458 1031.80842483 239.29567712 1021.8671875 243.9375 C1019.87941523 245.06861727 1018.59002586 246.37119302 1017 248 C1011.95427435 250.79125249 1011.95427435 250.79125249 1009 251.4375 C1005.86287531 252.31981632 1003.57831142 254.05194248 1001 256 C1000.67 256.99 1000.34 257.98 1000 259 C1002.19208599 261.66293978 1003.28081893 262.90769326 1006.76953125 263.35546875 C1007.77371094 263.30003906 1008.77789063 263.24460937 1009.8125 263.1875 C1013.30602624 263.05984374 1016.553995 262.94954466 1020 263.5625 C1022.87910058 263.98236884 1024.27999364 263.75034658 1027 263 C1027.6084375 263.165 1028.216875 263.33 1028.84375 263.5 C1031.87518121 264.20294057 1034.44802691 263.63657744 1037.48828125 263.15625 C1040 263 1040 263 1043.12207031 263.48413086 C1047.31640069 264.04208982 1051.33665682 264.12665909 1055.55859375 264.09765625 C1056.34774673 264.0962413 1057.13689972 264.09482635 1057.94996643 264.09336853 C1060.44585115 264.08781555 1062.94164285 264.07527208 1065.4375 264.0625 C1067.13997265 264.05747891 1068.84244673 264.05291707 1070.54492188 264.04882812 C1074.69664988 264.03786158 1078.84830922 264.02062991 1083 264 C1085.29268363 269.49071069 1085.28358551 274.46245967 1085.26069641 280.30619812 C1085.26452196 281.34234672 1085.26834751 282.37849532 1085.27228898 283.44604236 C1085.28260511 286.91679799 1085.27862946 290.38738777 1085.2746582 293.8581543 C1085.27900531 296.34675245 1085.28418845 298.83534927 1085.29014587 301.32394409 C1085.30215269 307.3801209 1085.30468779 313.43623254 1085.30234561 319.49241527 C1085.3005621 324.41311374 1085.30231278 329.33379876 1085.30657005 334.25449562 C1085.30716524 334.95498291 1085.30776043 335.65547019 1085.30837366 336.37718436 C1085.3095854 337.80019897 1085.31079953 339.22321357 1085.31201603 340.64622817 C1085.32288737 353.98457397 1085.32073043 367.32289447 1085.31463119 380.66124169 C1085.30945689 392.87090056 1085.32073169 405.08047978 1085.33972941 417.29012289 C1085.35908477 429.82556244 1085.36736821 442.36096427 1085.36360615 454.89641887 C1085.36169131 461.93485024 1085.36420959 468.97321372 1085.37832069 476.01163292 C1085.39144513 482.6247543 1085.38900605 489.23774188 1085.37590981 495.85087204 C1085.37353311 498.28296652 1085.37631747 500.71507209 1085.38453293 503.14715385 C1085.39490935 506.45654268 1085.3869733 509.76538438 1085.3742218 513.07475281 C1085.38159609 514.04633148 1085.38897037 515.01791016 1085.39656812 516.01893061 C1085.38936158 516.90250265 1085.38215503 517.78607468 1085.37473011 518.69642162 C1085.37478513 519.46058397 1085.37484014 520.22474633 1085.37489682 521.01206511 C1085 523 1085 523 1083.92075646 524.74520385 C1080.95812465 526.6806387 1078.40490778 526.37755676 1074.89316654 526.38031673 C1073.79529831 526.38730661 1073.79529831 526.38730661 1072.67525092 526.3944377 C1070.20316734 526.40646406 1067.73162568 526.39696305 1065.25953674 526.38768005 C1063.47690985 526.39184975 1061.69428561 526.39732525 1059.91166633 526.40399987 C1054.99731963 526.41852332 1050.08313965 526.41418816 1045.16878355 526.40683305 C1039.87390951 526.40212011 1034.57907253 526.41459523 1029.28421021 526.42485046 C1018.90052282 526.44208637 1008.51689583 526.4428678 998.13319785 526.43763756 C989.68711424 526.43360004 981.2410485 526.43503447 972.79496574 526.44038582 C970.99331393 526.44150845 970.99331393 526.44150845 969.1552651 526.44265376 C966.71520933 526.44418524 964.27515355 526.44572359 961.83509778 526.44726873 C938.9230963 526.4610135 916.0111289 526.4555444 893.09912818 526.44408352 C872.16448366 526.43417042 851.22992776 526.44705496 830.29529691 526.47101771 C808.7932202 526.49544388 787.29118469 526.50500662 765.78909439 526.49836498 C753.72041402 526.49487782 741.65180164 526.49707043 729.58313179 526.51461601 C719.29792482 526.52938286 709.01283358 526.52991614 698.72762877 526.5125451 C693.48569304 526.50406555 688.24396363 526.50181009 683.00203896 526.51719666 C678.1892615 526.53114741 673.37686507 526.52614868 668.56410908 526.50695742 C666.83639916 526.50322833 665.10865794 526.50602846 663.38097615 526.51656907 C635.38550142 526.67502112 602.15357066 518.55707476 581 499 C581 498.34 581 497.68 581 497 C580.278125 496.773125 579.55625 496.54625 578.8125 496.3125 C575.43567583 494.73664872 573.44232961 492.79123384 571 490 C571 489.34 571 488.68 571 488 C570.071875 487.62875 570.071875 487.62875 569.125 487.25 C566.61289704 485.77229238 566.23892656 484.56044823 565 482 C564.01 481.67 563.02 481.34 562 481 C561.071875 479.4840625 561.071875 479.4840625 560.125 477.9375 C558.33254672 474.75221746 558.33254672 474.75221746 555.375 474.5 C552.82473909 474.81108239 552.82473909 474.81108239 551 477 C550.73877953 478.96652848 550.73877953 478.96652848 550.83984375 481.234375 C550.85724609 482.54571411 550.85724609 482.54571411 550.875 483.88354492 C550.9059375 485.30244019 550.9059375 485.30244019 550.9375 486.75 C551.06642458 497.52684174 550.68028677 508.22983401 550.09179688 518.98901367 C550.01561676 520.65788488 550 522.32939097 550 524 C546.04526688 526.63648875 542.66173862 526.273769 538.07253742 526.24609566 C537.14384711 526.24840335 536.2151568 526.25071103 535.25832435 526.25308865 C532.11715817 526.25842193 528.97619318 526.24937701 525.83503723 526.24050903 C523.57205698 526.24138042 521.30907691 526.24313016 519.04609793 526.24568737 C512.80478795 526.25017806 506.56354607 526.24213364 500.32224476 526.23213124 C494.28995118 526.22440679 488.25766513 526.22605031 482.2253686 526.22749493 C469.88205123 526.23012531 457.53875525 526.22343014 445.19544411 526.21146011 C432.97017117 526.19963488 420.74490714 526.19193 408.51962852 526.18975449 C407.76011671 526.18961701 407.00060489 526.18947953 406.21807757 526.18933788 C402.36105984 526.18866124 398.5040421 526.18805846 394.64702436 526.18748413 C367.31228426 526.18328087 339.9775558 526.16979937 312.64282227 526.15087891 C286.08390363 526.13251663 259.52498817 526.11834618 232.96606445 526.10986328 C232.14771639 526.10960023 231.32936833 526.10933718 230.48622184 526.10906615 C222.26819757 526.10642916 214.05017327 526.10387753 205.83214895 526.10138843 C189.09038489 526.09631571 172.34862105 526.09067321 155.6068573 526.08468628 C154.83706124 526.0844117 154.06726518 526.08413712 153.27414197 526.08385422 C101.84942305 526.06544612 50.42471089 526.0337134 -1 526 C-2.31163128 523.37673745 -2.12589617 521.44391275 -2.12698364 518.50511169 C-2.13121338 516.75352501 -2.13121338 516.75352501 -2.13552856 514.96655273 C-2.13350433 513.6787793 -2.1314801 512.39100586 -2.12939453 511.06420898 C-2.13074908 509.69922336 -2.13252932 508.3342381 -2.13470459 506.96925354 C-2.13927551 503.25400106 -2.13748996 499.53877626 -2.1343255 495.82352328 C-2.13179656 491.93329718 -2.13414127 488.04307348 -2.13571167 484.15284729 C-2.13753332 477.61157811 -2.13512877 471.0703202 -2.13037109 464.52905273 C-2.12494438 456.9811021 -2.12667954 449.43317854 -2.1321975 441.88522857 C-2.1367478 435.40017321 -2.13736933 428.91512596 -2.13475883 422.43006951 C-2.13320454 418.55933156 -2.13297865 414.6886063 -2.13629532 410.81786919 C-2.13920133 407.17109487 -2.13714852 403.52435508 -2.13140106 399.87758446 C-2.12946439 397.91243918 -2.13240522 395.94729096 -2.13552856 393.98214722 C-2.1162743 385.87393674 -1.75458402 378.01949016 -0.0625 370.0625 C0.47037096 367.53136295 0.99913832 365.00466742 1.46875 362.4609375 C3.6175153 350.89341762 7.95296261 341.04425314 13.90625 330.9140625 C14.76891102 329.40440572 15.59457601 327.87360878 16.40625 326.3359375 C19.21850222 321.01274581 21.94815506 316.44714689 26 312 C27.12522327 310.68769141 28.25020632 309.37517681 29.375 308.0625 C34.99513623 301.67763682 41.05959146 294.96390089 48 290 C48.99 290 49.98 290 51 290 C51.33 289.01 51.66 288.02 52 287 C55 285 55 285 58 285 C58 284.34 58 283.68 58 283 C59.11375 282.443125 60.2275 281.88625 61.375 281.3125 C62.46748047 280.76529297 62.46748047 280.76529297 63.58203125 280.20703125 C65.22319444 279.38777531 66.86650577 278.57281131 68.51171875 277.76171875 C73.44096174 275.32351739 78.25708944 272.78388229 83 270 C82.67 268.35 82.34 266.7 82 265 C73.1418263 262.61504858 64.36044395 262.7418508 55.2734375 262.8046875 C53.6734739 262.80842497 52.07350798 262.81126847 50.47354126 262.81326294 C46.29459132 262.82084166 42.11578389 262.84043954 37.93688965 262.8626709 C33.65976895 262.88325455 29.38262487 262.89229124 25.10546875 262.90234375 C16.7369143 262.92369179 8.36847496 262.95775675 0 263 C-2.61510674 258.06108097 -2.27884035 253.17710694 -2.25396729 247.73812866 C-2.25708727 246.69466738 -2.26020725 245.6512061 -2.26342177 244.57612479 C-2.27140833 241.07461843 -2.26507551 237.57328504 -2.25878906 234.07177734 C-2.26149859 231.56362303 -2.26505931 229.05546951 -2.26940918 226.5473175 C-2.27759055 220.43953317 -2.27638163 214.33181305 -2.2705839 208.22402786 C-2.26606801 203.26135367 -2.26545419 198.29869326 -2.26763153 193.33601761 C-2.267938 192.62984411 -2.26824446 191.92367061 -2.26856022 191.19609792 C-2.26919966 189.76156778 -2.26984809 188.32703764 -2.2705054 186.89250751 C-2.2762083 173.44161676 -2.26965099 159.99075328 -2.25890467 146.539867 C-2.24996531 134.99303571 -2.25152444 123.44624463 -2.26074219 111.89941406 C-2.27143884 98.49370843 -2.27566307 85.08802668 -2.26951766 71.68231738 C-2.26888055 70.25366187 -2.26825181 68.82500637 -2.26763153 67.39635086 C-2.26732298 66.69339982 -2.26701443 65.99044877 -2.26669653 65.26619618 C-2.26496806 60.30723303 -2.26788788 55.348285 -2.27259064 50.38932419 C-2.27877673 43.71959372 -2.27438947 37.04995116 -2.26280212 30.38022423 C-2.26014925 27.92716918 -2.26093125 25.47410776 -2.26532745 23.02105522 C-2.27075947 19.68325046 -2.26397731 16.34569289 -2.25396729 13.00790405 C-2.25842873 12.02786136 -2.26289017 11.04781867 -2.26748681 10.03807771 C-2.26227132 9.14692219 -2.25705582 8.25576667 -2.25168228 7.33760643 C-2.25135758 6.56682648 -2.25103287 5.79604653 -2.25069833 5.00190961 C-2 3 -2 3 0 0 Z " fill="#00FF00" transform="translate(18,18)"/>
<path d="M0 0 C3.01148963 -0.37374616 3.01148963 -0.37374616 6.97603989 -0.3719368 C7.70592743 -0.37569793 8.43581497 -0.37945906 9.18782032 -0.38333416 C11.65891726 -0.39235098 14.12944847 -0.37978477 16.6005249 -0.36749268 C18.37989053 -0.36951506 20.15925507 -0.37285211 21.93861604 -0.37739825 C26.84806154 -0.3860861 31.75731933 -0.37594402 36.66674852 -0.36285591 C41.95386195 -0.35199724 47.24095726 -0.35836464 52.52807617 -0.36264038 C62.89451461 -0.36828658 73.26087937 -0.35793411 83.62730524 -0.34235242 C95.69147123 -0.32485032 107.75562274 -0.32339393 119.81979945 -0.32273683 C141.34374945 -0.32104695 162.86766581 -0.30521122 184.39160156 -0.28125 C205.2900419 -0.25800188 226.1884609 -0.24382711 247.08691406 -0.24023438 C249.0166104 -0.23990022 249.0166104 -0.23990022 250.9852905 -0.23955932 C253.57679374 -0.23911673 256.16829697 -0.23867471 258.75980021 -0.23823325 C260.03809442 -0.23801369 261.31638864 -0.23779412 262.63341904 -0.2375679 C263.90842895 -0.23735192 265.18343886 -0.23713593 266.49708544 -0.2369134 C286.39143006 -0.23321292 306.28577122 -0.22185208 326.18011205 -0.2094375 C333.39725019 -0.20500029 340.614388 -0.20156279 347.83152696 -0.19881538 C359.28214755 -0.19438406 370.73275539 -0.18661557 382.18336794 -0.17204097 C387.41741613 -0.16543038 392.65145308 -0.16036748 397.88550568 -0.15958023 C402.67464674 -0.15879406 407.46375935 -0.15339478 412.25289157 -0.14426073 C413.98778411 -0.14174987 415.72268004 -0.1409205 417.4575741 -0.14191952 C419.81194796 -0.14301364 422.1662324 -0.13799652 424.52059555 -0.13142776 C425.82954654 -0.13018127 427.13849754 -0.12893477 428.48711371 -0.1276505 C431.75680064 -0.00883733 434.7907504 0.3889453 438 1 C438.82757813 1.10699219 439.65515625 1.21398437 440.5078125 1.32421875 C455.29512237 3.37678564 469.74822805 8.1806575 483 15 C483 15.66 483 16.32 483 17 C484.175625 17.309375 484.175625 17.309375 485.375 17.625 C490.24735302 19.4731339 494.77926645 21.9303756 499 25 C499 25.66 499 26.32 499 27 C499.680625 27.185625 500.36125 27.37125 501.0625 27.5625 C505.21162482 29.59292278 507.85667107 32.676862 511 36 C512.19109375 37.16982422 512.19109375 37.16982422 513.40625 38.36328125 C516.99254316 42.00898589 520.22212772 45.94398412 523.5 49.8671875 C525.81075559 52.33977233 525.81075559 52.33977233 528.8125 51.8203125 C529.534375 51.54960938 530.25625 51.27890625 531 51 C532.23562793 46.22349539 532.10980369 41.57720028 532.0625 36.68359375 C532.05871338 35.79011734 532.05492676 34.89664093 532.05102539 33.97608948 C532.03884076 31.12984326 532.02021141 28.28369985 532 25.4375 C531.97341075 21.68620058 531.95341558 17.93495194 531.9375 14.18359375 C531.92920166 13.32309921 531.92090332 12.46260468 531.91235352 11.57603455 C531.90905029 10.7716243 531.90574707 9.96721405 531.90234375 9.13842773 C531.89710693 8.43403061 531.89187012 7.72963348 531.88647461 7.00389099 C532.00610769 4.89219033 532.46344564 3.04077789 533 1 C539.56321422 0.24037511 546.01657672 -0.14594641 552.62145042 -0.13422108 C553.54013552 -0.13657331 554.45882062 -0.13892554 555.40534467 -0.14134905 C558.47030498 -0.14798294 561.53522235 -0.14758254 564.60018921 -0.14717102 C566.82511224 -0.15047306 569.05003467 -0.15419935 571.27495635 -0.1583125 C577.378688 -0.16830041 583.48240983 -0.17204405 589.5861485 -0.17470181 C595.49562751 -0.17821199 601.40509907 -0.18635971 607.31457359 -0.19424575 C623.1329083 -0.21504122 638.95124482 -0.22554931 654.76959001 -0.23437535 C662.25166132 -0.2385859 669.73373184 -0.2438071 677.21580248 -0.24905988 C702.82837766 -0.26693925 728.44095307 -0.28193832 754.05353355 -0.28938007 C755.65981375 -0.28985483 757.26609395 -0.29033072 758.87237415 -0.29080774 C759.66892792 -0.29104411 760.46548169 -0.29128049 761.28617345 -0.29152403 C765.32180444 -0.29272521 769.35743542 -0.29394067 773.39306641 -0.29516602 C774.19393988 -0.29540617 774.99481335 -0.29564632 775.81995571 -0.29589374 C801.81916136 -0.30379662 827.81832154 -0.32725432 853.81750732 -0.35972196 C881.30854635 -0.39399004 908.79955875 -0.41372799 936.29061949 -0.41702431 C939.30573186 -0.41744186 942.32084422 -0.41792142 945.33595657 -0.41844749 C946.07835684 -0.41857069 946.8207571 -0.41869388 947.58565434 -0.4188208 C959.54757172 -0.42115563 971.50943629 -0.43683021 983.47133482 -0.45728934 C995.48106453 -0.47750546 1007.49073057 -0.48304451 1019.50047414 -0.47351871 C1026.01031086 -0.46895469 1032.51997553 -0.47098203 1039.02978897 -0.49028015 C1044.98189184 -0.50777359 1050.93369536 -0.50702751 1056.88580079 -0.49138286 C1059.04572387 -0.48898574 1061.20566695 -0.49343784 1063.36555927 -0.50521151 C1066.28860906 -0.52016595 1069.21057532 -0.51077268 1072.13359642 -0.49498463 C1072.98336774 -0.50520683 1073.83313906 -0.51542904 1074.70866102 -0.52596101 C1078.36398267 -0.48250079 1080.54072469 -0.33979491 1083.52321368 1.86680001 C1085.43516811 4.62859507 1085.49570972 6.32137278 1085.48774719 9.66860962 C1085.49469101 10.82395706 1085.50163483 11.9793045 1085.50878906 13.16966248 C1085.495979 14.43319046 1085.48316895 15.69671844 1085.4699707 16.99853516 C1085.4704796 18.34561838 1085.47273594 19.69270191 1085.47660828 21.03977966 C1085.48202708 24.69471855 1085.46261925 28.34915045 1085.43850732 32.00399828 C1085.41721758 35.82673606 1085.41780642 39.64947187 1085.41581726 43.47225952 C1085.40937018 49.8897983 1085.38812286 56.30714644 1085.35668945 62.72460938 C1085.31636545 70.96816549 1085.29899705 79.21159748 1085.28938007 87.45524025 C1085.28108567 94.53693749 1085.26384793 101.61860832 1085.24434257 108.70028257 C1085.23827252 110.97984046 1085.23313205 113.25939936 1085.2279911 115.5389595 C1085.21922011 119.11599312 1085.20492321 122.69296504 1085.1862812 126.2699604 C1085.17721872 128.21375937 1085.17297717 130.15757893 1085.16885376 132.10139465 C1085.16169846 133.25110245 1085.15454315 134.40081024 1085.14717102 135.58535767 C1085.14289754 136.58860392 1085.13862406 137.59185017 1085.13422108 138.62549782 C1085 141 1085 141 1084 143 C1083.9307136 145.24314711 1084.00248334 147.46781485 1084.0625 149.7109375 C1084.00031638 151.9884126 1083.61749079 153.8150326 1083 156 C1082.68332165 157.41573851 1082.37099436 158.83245567 1082.0625 160.25 C1080.71372159 166.32449834 1079.36883033 172.22597606 1077 178 C1076.5978125 179.5778125 1076.5978125 179.5778125 1076.1875 181.1875 C1074.66002346 186.09150362 1072.3897707 190.46673267 1070 195 C1069.34 195 1068.68 195 1068 195 C1067.896875 195.721875 1067.79375 196.44375 1067.6875 197.1875 C1066.30599272 202.83912071 1062.66688426 206.61762613 1059 211 C1058.25752207 212.11625963 1057.52758776 213.24099889 1056.8125 214.375 C1056.214375 215.24125 1055.61625 216.1075 1055 217 C1054.34 217 1053.68 217 1053 217 C1052.34 218.32 1051.68 219.64 1051 221 C1050.34 221 1049.68 221 1049 221 C1048.75894531 221.5671875 1048.51789063 222.134375 1048.26953125 222.71875 C1042.77721235 232.58802458 1031.80842483 239.29567712 1021.8671875 243.9375 C1019.87941523 245.06861727 1018.59002586 246.37119302 1017 248 C1011.95427435 250.79125249 1011.95427435 250.79125249 1009 251.4375 C1005.86287531 252.31981632 1003.57831142 254.05194248 1001 256 C1000.67 256.99 1000.34 257.98 1000 259 C1002.19208599 261.66293978 1003.28081893 262.90769326 1006.76953125 263.35546875 C1007.77371094 263.30003906 1008.77789063 263.24460937 1009.8125 263.1875 C1013.30602624 263.05984374 1016.553995 262.94954466 1020 263.5625 C1022.87910058 263.98236884 1024.27999364 263.75034658 1027 263 C1027.6084375 263.165 1028.216875 263.33 1028.84375 263.5 C1031.87518121 264.20294057 1034.44802691 263.63657744 1037.48828125 263.15625 C1040 263 1040 263 1043.12207031 263.48413086 C1047.31640069 264.04208982 1051.33665682 264.12665909 1055.55859375 264.09765625 C1056.34774673 264.0962413 1057.13689972 264.09482635 1057.94996643 264.09336853 C1060.44585115 264.08781555 1062.94164285 264.07527208 1065.4375 264.0625 C1067.13997265 264.05747891 1068.84244673 264.05291707 1070.54492188 264.04882812 C1074.69664988 264.03786158 1078.84830922 264.02062991 1083 264 C1085.29268363 269.49071069 1085.28358551 274.46245967 1085.26069641 280.30619812 C1085.26452196 281.34234672 1085.26834751 282.37849532 1085.27228898 283.44604236 C1085.28260511 286.91679799 1085.27862946 290.38738777 1085.2746582 293.8581543 C1085.27900531 296.34675245 1085.28418845 298.83534927 1085.29014587 301.32394409 C1085.30215269 307.3801209 1085.30468779 313.43623254 1085.30234561 319.49241527 C1085.3005621 324.41311374 1085.30231278 329.33379876 1085.30657005 334.25449562 C1085.30716524 334.95498291 1085.30776043 335.65547019 1085.30837366 336.37718436 C1085.3095854 337.80019897 1085.31079953 339.22321357 1085.31201603 340.64622817 C1085.32288737 353.98457397 1085.32073043 367.32289447 1085.31463119 380.66124169 C1085.30945689 392.87090056 1085.32073169 405.08047978 1085.33972941 417.29012289 C1085.35908477 429.82556244 1085.36736821 442.36096427 1085.36360615 454.89641887 C1085.36169131 461.93485024 1085.36420959 468.97321372 1085.37832069 476.01163292 C1085.39144513 482.6247543 1085.38900605 489.23774188 1085.37590981 495.85087204 C1085.37353311 498.28296652 1085.37631747 500.71507209 1085.38453293 503.14715385 C1085.39490935 506.45654268 1085.3869733 509.76538438 1085.3742218 513.07475281 C1085.38159609 514.04633148 1085.38897037 515.01791016 1085.39656812 516.01893061 C1085.38936158 516.90250265 1085.38215503 517.78607468 1085.37473011 518.69642162 C1085.37478513 519.46058397 1085.37484014 520.22474633 1085.37489682 521.01206511 C1085 523 1085 523 1083.92075646 524.74520385 C1080.95812465 526.6806387 1078.40490778 526.37755676 1074.89316654 526.38031673 C1073.79529831 526.38730661 1073.79529831 526.38730661 1072.67525092 526.3944377 C1070.20316734 526.40646406 1067.73162568 526.39696305 1065.25953674 526.38768005 C1063.47690985 526.39184975 1061.69428561 526.39732525 1059.91166633 526.40399987 C1054.99731963 526.41852332 1050.08313965 526.41418816 1045.16878355 526.40683305 C1039.87390951 526.40212011 1034.57907253 526.41459523 1029.28421021 526.42485046 C1018.90052282 526.44208637 1008.51689583 526.4428678 998.13319785 526.43763756 C989.68711424 526.43360004 981.2410485 526.43503447 972.79496574 526.44038582 C970.99331393 526.44150845 970.99331393 526.44150845 969.1552651 526.44265376 C966.71520933 526.44418524 964.27515355 526.44572359 961.83509778 526.44726873 C938.9230963 526.4610135 916.0111289 526.4555444 893.09912818 526.44408352 C872.16448366 526.43417042 851.22992776 526.44705496 830.29529691 526.47101771 C808.7932202 526.49544388 787.29118469 526.50500662 765.78909439 526.49836498 C753.72041402 526.49487782 741.65180164 526.49707043 729.58313179 526.51461601 C719.29792482 526.52938286 709.01283358 526.52991614 698.72762877 526.5125451 C693.48569304 526.50406555 688.24396363 526.50181009 683.00203896 526.51719666 C678.1892615 526.53114741 673.37686507 526.52614868 668.56410908 526.50695742 C666.83639916 526.50322833 665.10865794 526.50602846 663.38097615 526.51656907 C635.38550142 526.67502112 602.15357066 518.55707476 581 499 C581 498.34 581 497.68 581 497 C580.278125 496.773125 579.55625 496.54625 578.8125 496.3125 C575.43567583 494.73664872 573.44232961 492.79123384 571 490 C571 489.34 571 488.68 571 488 C570.071875 487.62875 570.071875 487.62875 569.125 487.25 C566.61289704 485.77229238 566.23892656 484.56044823 565 482 C564.01 481.67 563.02 481.34 562 481 C561.071875 479.4840625 561.071875 479.4840625 560.125 477.9375 C558.33254672 474.75221746 558.33254672 474.75221746 555.375 474.5 C552.82473909 474.81108239 552.82473909 474.81108239 551 477 C550.73877953 478.96652848 550.73877953 478.96652848 550.83984375 481.234375 C550.85724609 482.54571411 550.85724609 482.54571411 550.875 483.88354492 C550.9059375 485.30244019 550.9059375 485.30244019 550.9375 486.75 C551.06642458 497.52684174 550.68028677 508.22983401 550.09179688 518.98901367 C550.01561676 520.65788488 550 522.32939097 550 524 C546.04526688 526.63648875 542.66173862 526.273769 538.07253742 526.24609566 C537.14384711 526.24840335 536.2151568 526.25071103 535.25832435 526.25308865 C532.11715817 526.25842193 528.97619318 526.24937701 525.83503723 526.24050903 C523.57205698 526.24138042 521.30907691 526.24313016 519.04609793 526.24568737 C512.80478795 526.25017806 506.56354607 526.24213364 500.32224476 526.23213124 C494.28995118 526.22440679 488.25766513 526.22605031 482.2253686 526.22749493 C469.88205123 526.23012531 457.53875525 526.22343014 445.19544411 526.21146011 C432.97017117 526.19963488 420.74490714 526.19193 408.51962852 526.18975449 C407.76011671 526.18961701 407.00060489 526.18947953 406.21807757 526.18933788 C402.36105984 526.18866124 398.5040421 526.18805846 394.64702436 526.18748413 C367.31228426 526.18328087 339.9775558 526.16979937 312.64282227 526.15087891 C286.08390363 526.13251663 259.52498817 526.11834618 232.96606445 526.10986328 C232.14771639 526.10960023 231.32936833 526.10933718 230.48622184 526.10906615 C222.26819757 526.10642916 214.05017327 526.10387753 205.83214895 526.10138843 C189.09038489 526.09631571 172.34862105 526.09067321 155.6068573 526.08468628 C154.83706124 526.0844117 154.06726518 526.08413712 153.27414197 526.08385422 C101.84942305 526.06544612 50.42471089 526.0337134 -1 526 C-2.31163128 523.37673745 -2.12589617 521.44391275 -2.12698364 518.50511169 C-2.13121338 516.75352501 -2.13121338 516.75352501 -2.13552856 514.96655273 C-2.13350433 513.6787793 -2.1314801 512.39100586 -2.12939453 511.06420898 C-2.13074908 509.69922336 -2.13252932 508.3342381 -2.13470459 506.96925354 C-2.13927551 503.25400106 -2.13748996 499.53877626 -2.1343255 495.82352328 C-2.13179656 491.93329718 -2.13414127 488.04307348 -2.13571167 484.15284729 C-2.13753332 477.61157811 -2.13512877 471.0703202 -2.13037109 464.52905273 C-2.12494438 456.9811021 -2.12667954 449.43317854 -2.1321975 441.88522857 C-2.1367478 435.40017321 -2.13736933 428.91512596 -2.13475883 422.43006951 C-2.13320454 418.55933156 -2.13297865 414.6886063 -2.13629532 410.81786919 C-2.13920133 407.17109487 -2.13714852 403.52435508 -2.13140106 399.87758446 C-2.12946439 397.91243918 -2.13240522 395.94729096 -2.13552856 393.98214722 C-2.1162743 385.87393674 -1.75458402 378.01949016 -0.0625 370.0625 C0.47037096 367.53136295 0.99913832 365.00466742 1.46875 362.4609375 C3.6175153 350.89341762 7.95296261 341.04425314 13.90625 330.9140625 C14.76891102 329.40440572 15.59457601 327.87360878 16.40625 326.3359375 C19.21850222 321.01274581 21.94815506 316.44714689 26 312 C27.12522327 310.68769141 28.25020632 309.37517681 29.375 308.0625 C34.99513623 301.67763682 41.05959146 294.96390089 48 290 C48.99 290 49.98 290 51 290 C51.33 289.01 51.66 288.02 52 287 C55 285 55 285 58 285 C58 284.34 58 283.68 58 283 C59.11375 282.443125 60.2275 281.88625 61.375 281.3125 C62.46748047 280.76529297 62.46748047 280.76529297 63.58203125 280.20703125 C65.22319444 279.38777531 66.86650577 278.57281131 68.51171875 277.76171875 C73.44096174 275.32351739 78.25708944 272.78388229 83 270 C82.67 268.35 82.34 266.7 82 265 C73.1418263 262.61504858 64.36044395 262.7418508 55.2734375 262.8046875 C53.6734739 262.80842497 52.07350798 262.81126847 50.47354126 262.81326294 C46.29459132 262.82084166 42.11578389 262.84043954 37.93688965 262.8626709 C33.65976895 262.88325455 29.38262487 262.89229124 25.10546875 262.90234375 C16.7369143 262.92369179 8.36847496 262.95775675 0 263 C-2.61510674 258.06108097 -2.27884035 253.17710694 -2.25396729 247.73812866 C-2.25708727 246.69466738 -2.26020725 245.6512061 -2.26342177 244.57612479 C-2.27140833 241.07461843 -2.26507551 237.57328504 -2.25878906 234.07177734 C-2.26149859 231.56362303 -2.26505931 229.05546951 -2.26940918 226.5473175 C-2.27759055 220.43953317 -2.27638163 214.33181305 -2.2705839 208.22402786 C-2.26606801 203.26135367 -2.26545419 198.29869326 -2.26763153 193.33601761 C-2.267938 192.62984411 -2.26824446 191.92367061 -2.26856022 191.19609792 C-2.26919966 189.76156778 -2.26984809 188.32703764 -2.2705054 186.89250751 C-2.2762083 173.44161676 -2.26965099 159.99075328 -2.25890467 146.539867 C-2.24996531 134.99303571 -2.25152444 123.44624463 -2.26074219 111.89941406 C-2.27143884 98.49370843 -2.27566307 85.08802668 -2.26951766 71.68231738 C-2.26888055 70.25366187 -2.26825181 68.82500637 -2.26763153 67.39635086 C-2.26732298 66.69339982 -2.26701443 65.99044877 -2.26669653 65.26619618 C-2.26496806 60.30723303 -2.26788788 55.348285 -2.27259064 50.38932419 C-2.27877673 43.71959372 -2.27438947 37.04995116 -2.26280212 30.38022423 C-2.26014925 27.92716918 -2.26093125 25.47410776 -2.26532745 23.02105522 C-2.27075947 19.68325046 -2.26397731 16.34569289 -2.25396729 13.00790405 C-2.25842873 12.02786136 -2.26289017 11.04781867 -2.26748681 10.03807771 C-2.26227132 9.14692219 -2.25705582 8.25576667 -2.25168228 7.33760643 C-2.25135758 6.56682648 -2.25103287 5.79604653 -2.25069833 5.00190961 C-2 3 -2 3 0 0 Z M1 4 C0.90271737 5.35859198 0.874446 6.72220286 0.87415886 8.08427334 C0.87155111 8.96981347 0.86894336 9.85535359 0.86625659 10.76772827 C0.86848732 11.75175206 0.87071804 12.73577584 0.87301636 13.74961853 C0.87145637 14.78628412 0.86989638 15.82294972 0.86828911 16.89102942 C0.8642742 20.39343151 0.86747066 23.89579088 0.87060547 27.39819336 C0.86925164 29.89752732 0.86747181 32.39686108 0.86529541 34.89619446 C0.86119484 40.99749198 0.86181452 47.09877249 0.86470805 53.20006936 C0.86696203 58.15712391 0.86727463 63.11417502 0.86618423 68.07122993 C0.866031 68.77545875 0.86587777 69.47968757 0.86571989 70.20525666 C0.86540018 71.63568166 0.86507597 73.06610667 0.8647473 74.49653167 C0.86189226 87.92590633 0.8651798 101.35527417 0.87054767 114.78464771 C0.87501476 126.31761686 0.8742406 137.85057595 0.86962891 149.38354492 C0.8642819 162.76173921 0.86216798 176.13992752 0.86524117 189.51812273 C0.86555973 190.94373325 0.8658741 192.36934378 0.86618423 193.7949543 C0.86633851 194.4964619 0.86649279 195.19796949 0.86665174 195.92073489 C0.86751658 200.87360497 0.86605469 205.82647126 0.86370468 210.77934074 C0.86061325 217.44160327 0.86280254 224.10384967 0.86859894 230.76611137 C0.86992634 233.21797148 0.86953276 235.66983318 0.86733627 238.12169266 C0.86462396 241.45561641 0.86800696 244.78947809 0.87301636 248.12339783 C0.87078564 249.10519089 0.86855491 250.08698396 0.86625659 251.09852833 C0.86886434 251.9866762 0.87147209 252.87482407 0.87415886 253.78988552 C0.87432121 254.56017572 0.87448356 255.33046592 0.87465084 256.12409824 C0.88471395 258.09158223 0.88471395 258.09158223 2 260 C3.13816162 259.99214478 3.13816162 259.99214478 4.29931641 259.98413086 C21.75005578 259.88220801 39.19994617 259.97108244 56.64862061 260.26345825 C58.71304038 260.29610268 60.77754652 260.32368596 62.84210205 260.34616089 C65.76495364 260.37938113 68.68689888 260.43147149 71.609375 260.48828125 C72.48514191 260.49467621 73.36090881 260.50107117 74.26321411 260.50765991 C78.91268946 260.62053217 82.31648838 260.83094788 86 264 C86.6875 267.4375 86.6875 267.4375 86 271 C83 273.3125 83 273.3125 80 275 C80 275.66 80 276.32 80 277 C73.24675325 278.94805195 73.24675325 278.94805195 70.625 279.5 C70.08875 279.665 69.5525 279.83 69 280 C68.67 280.66 68.34 281.32 68 282 C66.40303579 282.92517853 64.77106797 283.79030831 63.125 284.625 C57.83502822 287.42882316 53.0970919 290.67718108 48.3125 294.265625 C46.58084516 295.56436613 44.8010299 296.7993134 43 298 C43 298.66 43 299.32 43 300 C42.17628906 300.32097656 42.17628906 300.32097656 41.3359375 300.6484375 C38.20140998 302.46206045 36.00884894 304.95066826 33.625 307.625 C32.89482666 308.43578003 32.89482666 308.43578003 32.14990234 309.26293945 C26.09520959 316.0504623 21.21335875 322.93609949 17 331 C16.3915625 332.08410156 15.783125 333.16820312 15.15625 334.28515625 C10.83470111 342.19132731 7.68160123 350.25476461 5.0625 358.875 C4.62091553 360.27117554 4.62091553 360.27117554 4.17041016 361.69555664 C2.55739107 367.30091763 1.72392693 372.78810725 1.42407227 378.60375977 C1.38353037 379.37078689 1.34298847 380.13781401 1.30121803 380.92808437 C0.76052327 392.53287853 0.85419116 404.15543147 0.8656745 415.76984334 C0.86824734 419.19685899 0.86584758 422.62387227 0.86428833 426.05088806 C0.86248298 431.7903594 0.86483192 437.52981775 0.86962891 443.26928711 C0.87509183 449.88144749 0.87328761 456.49357713 0.8678025 463.10573679 C0.8632524 468.82254391 0.8626294 474.53934184 0.86524117 480.25615019 C0.86679052 483.65380987 0.86703437 487.05145512 0.86370468 490.44911385 C0.86115764 494.22919917 0.86504662 498.00922568 0.87060547 501.78930664 C0.86858124 502.89751266 0.86655701 504.00571869 0.86447144 505.14750671 C0.88086112 511.18142895 1.21231721 517.01634242 2 523 C7.09586076 524.0324317 11.96273718 524.14014051 17.13484573 524.12584114 C18.04951465 524.12729458 18.96418356 524.12874802 19.90656972 524.13024551 C22.98193958 524.1339048 26.05725986 524.13041939 29.13262939 524.12698364 C31.3555252 524.12813548 33.57842081 524.12972343 35.80131602 524.13171089 C41.91795055 524.13589545 48.03456952 524.13381744 54.15120411 524.13072467 C60.06741497 524.12869905 65.98362248 524.1313572 71.89983288 524.13387203 C84.74761753 524.13913996 97.5953972 524.13868059 110.44318232 524.13579312 C121.68389078 524.13327917 132.92459741 524.13262012 144.16530609 524.13381577 C144.91045797 524.13389215 145.65560985 524.13396854 146.42334209 524.13404724 C149.44798937 524.13435856 152.47263664 524.13467696 155.49728391 524.135007 C183.87561802 524.13806666 212.25394896 524.13529125 240.63228258 524.1299101 C265.86162758 524.12516247 291.09096754 524.12559069 316.3203125 524.13037109 C344.6522475 524.13572141 372.9841797 524.13785164 401.31611514 524.13475883 C404.33406242 524.1344381 407.35200969 524.13412526 410.36995697 524.13381577 C411.48463864 524.13369715 411.48463864 524.13369715 412.62183912 524.13357614 C423.8600685 524.13243707 435.09829586 524.13377186 446.33652496 524.13629532 C459.1074935 524.13914861 471.87845629 524.13845243 484.64942411 524.13301457 C491.17107515 524.13037739 497.69271593 524.12937282 504.21436691 524.13266373 C510.17506833 524.13562621 516.13574987 524.13403468 522.09644946 524.12868617 C524.26183628 524.12756181 526.42722474 524.1281536 528.59261051 524.13056196 C531.51793774 524.13356796 534.44319535 524.13051932 537.36851883 524.12584114 C538.65277193 524.12935289 538.65277193 524.12935289 539.96296954 524.13293558 C544.11438734 524.22926004 544.11438734 524.22926004 548 523 C547.99111755 522.42006287 547.98223511 521.84012573 547.9730835 521.24261475 C547.88460971 515.20823012 547.82426578 509.17402962 547.78027344 503.13916016 C547.76015444 500.88680539 547.73285592 498.63450287 547.69824219 496.38232422 C547.64973791 493.14537669 547.62703395 489.90911953 547.609375 486.671875 C547.58872986 485.66445251 547.56808472 484.65703003 547.54681396 483.61907959 C547.54457601 476.65112343 547.54457601 476.65112343 549.84082031 473.36816406 C552.85341526 471.45923348 554.49715868 471.35662098 558 472 C560.6875 474.4375 560.6875 474.4375 563 477 C563.99 477.33 564.98 477.66 566 478 C566 478.66 566 479.32 566 480 C567.33333333 481.66666667 567.33333333 481.66666667 569 483 C569.66 483 570.32 483 571 483 C571 483.66 571 484.32 571 485 C572.33333333 486.66666667 572.33333333 486.66666667 574 488 C574.66 488 575.32 488 576 488 C576.20625 488.7425 576.4125 489.485 576.625 490.25 C578.43129424 493.86258849 580.55530835 494.94643382 584 497 C589.55887054 500.66648908 589.55887054 500.66648908 591.6171875 502.22265625 C596.15624772 505.64263941 602.12323932 510 608 510 C608 510.66 608 511.32 608 512 C608.66386719 512.19335938 609.32773437 512.38671875 610.01171875 512.5859375 C621.42931937 515.95287958 621.42931937 515.95287958 626 519 C628.67453044 519.58651983 631.29951849 520.07630376 634 520.5 C634.68578125 520.61730469 635.3715625 520.73460937 636.078125 520.85546875 C651.06137415 523.29155646 665.98480958 524.29859886 681.14700317 524.24723816 C682.88685607 524.24883155 684.62670833 524.25130036 686.36655891 524.25455457 C691.08758951 524.26089285 695.80853271 524.25495933 700.52955747 524.24679029 C705.64313076 524.24015478 710.7566952 524.24517414 715.87026978 524.24867249 C725.85903171 524.25368925 735.84776028 524.24810627 745.83651806 524.23882218 C757.46965415 524.22840044 769.10278316 524.22850931 780.73592304 524.22899476 C801.47971743 524.22949424 822.22349634 524.22036123 842.96728516 524.20581055 C863.10465781 524.19169255 883.24201686 524.18464125 903.37939453 524.18530273 C904.62240153 524.18534269 905.86540854 524.18538265 907.14608242 524.18542381 C909.00735835 524.18548435 909.00735835 524.18548435 910.90623581 524.1855461 C933.8430503 524.1862349 956.77985901 524.18035617 979.71667162 524.17139288 C987.83215266 524.16837247 995.94763263 524.16731288 1004.06311417 524.16686058 C1013.93415478 524.16618025 1023.80518563 524.16174018 1033.6762221 524.15252777 C1038.71534452 524.14789589 1043.75445441 524.14486943 1048.7935791 524.14612198 C1053.39797027 524.14721106 1058.00233364 524.14373549 1062.606719 524.13647345 C1064.27977728 524.13464928 1065.95283841 524.13454025 1067.62589683 524.13624074 C1069.88461969 524.13828383 1072.14324948 524.13428135 1074.40196419 524.12863445 C1075.66106987 524.12793003 1076.92017555 524.1272256 1078.21743596 524.12649983 C1080.90719205 524.31756267 1080.90719205 524.31756267 1082 523 C1082.09729969 521.63619264 1082.12555404 520.2673831 1082.12584114 518.90010929 C1082.12844889 518.01108577 1082.13105664 517.12206225 1082.13374341 516.20609862 C1082.13039732 514.72422651 1082.13039732 514.72422651 1082.12698364 513.2124176 C1082.12854363 512.17166846 1082.13010362 511.13091931 1082.13171089 510.05863231 C1082.13572582 506.54241074 1082.13252933 503.02623172 1082.12939453 499.51000977 C1082.13074836 497.00082372 1082.13252819 494.49163786 1082.13470459 491.98245239 C1082.13880517 485.85709204 1082.13818547 479.73174766 1082.13529195 473.60638709 C1082.13303798 468.62978639 1082.13272537 463.65318912 1082.13381577 458.67658806 C1082.133969 457.96958388 1082.13412223 457.2625797 1082.13428011 456.53415115 C1082.13459982 455.09808914 1082.13492403 453.66202714 1082.1352527 452.22596513 C1082.13810774 438.74365537 1082.13482019 425.26135238 1082.12945233 411.77904373 C1082.12498524 400.20059281 1082.1257594 388.62215191 1082.13037109 377.04370117 C1082.13571809 363.61276917 1082.13783203 350.18184314 1082.13475883 336.75091022 C1082.13444027 335.31968272 1082.1341259 333.88845521 1082.13381577 332.45722771 C1082.13366149 331.752956 1082.13350721 331.04868429 1082.13334826 330.32307102 C1082.13248341 325.35066429 1082.13394532 320.37826133 1082.13629532 315.40585518 C1082.13938673 308.71732587 1082.13719748 302.02881849 1082.13140106 295.34029007 C1082.13007366 292.87875462 1082.13046725 290.41721758 1082.13266373 287.95568275 C1082.13537601 284.60862191 1082.13199308 281.26162289 1082.12698364 277.91456604 C1082.12921436 276.92888203 1082.13144509 275.94319801 1082.13374341 274.92764479 C1082.13113566 274.03601352 1082.12852791 273.14438225 1082.12584114 272.22573185 C1082.12559761 271.06573991 1082.12559761 271.06573991 1082.12534916 269.88231379 C1082.11584718 267.90936587 1082.11584718 267.90936587 1081 266 C1075.51904631 265.97526645 1070.03812517 265.95712404 1064.55712891 265.94506836 C1062.69286534 265.94004208 1060.8286057 265.93322008 1058.96435547 265.92456055 C1056.28351876 265.91242037 1053.6027342 265.90675461 1050.921875 265.90234375 C1050.08944275 265.89718246 1049.2570105 265.89202118 1048.39935303 265.88670349 C1047.22859222 265.88659019 1047.22859222 265.88659019 1046.03417969 265.88647461 C1045.35023132 265.884254 1044.66628296 265.88203339 1043.96160889 265.87974548 C1041.94062046 265.94061187 1041.94062046 265.94061187 1039.81036377 266.56959534 C1039.21294373 266.71162888 1038.61552368 266.85366241 1038 267 C1037.67 266.67 1037.34 266.34 1037 266 C1035.32927735 266.11933733 1033.66260707 266.29679247 1032 266.5 C1028.18678402 266.89772787 1024.73998457 266.99463214 1020.9375 266.5 C1017.2219722 265.65721214 1017.2219722 265.65721214 1015 267 C1013.05949625 266.93694079 1011.12099588 266.80142256 1009.1875 266.625 C1008.14980469 266.53476562 1007.11210938 266.44453125 1006.04296875 266.3515625 C1003.31495626 266.03638776 1000.68142097 265.58485707 998 265 C996.73000942 261.19002826 996.32171619 259.00187449 997 255 C1001.77575265 250.34310092 1007.8382348 248.19317066 1014 246 C1015.34628407 245.01750472 1016.67933996 244.01667833 1018 243 C1019.31995261 242.24688188 1020.65425873 241.51850442 1022 240.8125 C1027.8804518 237.59248633 1033.67567927 234.08107832 1039 230 C1039 229.34 1039 228.68 1039 228 C1039.58007812 227.74476563 1040.16015625 227.48953125 1040.7578125 227.2265625 C1047.00273062 223.81035294 1051.62662719 217.48158395 1055.67578125 211.76171875 C1057 210 1057 210 1058.609375 208.41796875 C1060.17643355 207.0040633 1060.17643355 207.0040633 1060.9375 204.625 C1062 202 1062 202 1063.84375 199.7578125 C1069.6220207 192.36748802 1073.42376997 182.97578233 1076 174 C1076.25394531 173.20207031 1076.50789063 172.40414062 1076.76953125 171.58203125 C1078.36623445 166.50876245 1079.59946009 161.45553954 1080.5703125 156.2265625 C1081 154 1081 154 1081.51891899 152.23690319 C1082.12014326 149.44136467 1082.1259772 146.84372654 1082.12698364 143.98298645 C1082.12980347 142.75046646 1082.13262329 141.51794647 1082.13552856 140.24807739 C1082.13358436 138.88519272 1082.1315362 137.5223082 1082.12939453 136.15942383 C1082.13074975 134.72205053 1082.13253036 133.28467759 1082.13470459 131.8473053 C1082.13926335 127.94676431 1082.13749607 124.04624977 1082.1343255 120.14570832 C1082.13179535 116.0675717 1082.13414114 111.98943736 1082.13571167 107.91130066 C1082.13753082 101.06594434 1082.13513306 94.22059882 1082.13037109 87.37524414 C1082.12492244 79.45105242 1082.12669652 71.52688639 1082.1321975 63.60269529 C1082.1367281 56.80520081 1082.13737964 50.0077141 1082.13475883 43.21021861 C1082.1331966 39.14749936 1082.13300096 35.08479222 1082.13629532 31.02207375 C1082.13917348 27.20621848 1082.13719939 23.39039655 1082.13140106 19.57454491 C1082.13007344 18.17042471 1082.13046761 16.76630173 1082.13266373 15.36218262 C1082.13537496 13.45347694 1082.13138065 11.54476516 1082.12698364 9.63606262 C1082.12660662 8.56552548 1082.12622959 7.49498835 1082.12584114 6.39201069 C1082.26990808 4.04691424 1082.26990808 4.04691424 1081 3 C1078.1140179 2.90095083 1075.25194003 2.86825377 1072.36548519 2.87695217 C1071.44416769 2.87579833 1070.52285019 2.87464448 1069.57361397 2.87345567 C1066.44553772 2.870781 1063.31751158 2.87531812 1060.18943787 2.87974548 C1057.94055849 2.87930995 1055.69167916 2.87843539 1053.4428001 2.87715632 C1047.23119531 2.87490774 1041.01960759 2.87893756 1034.80800498 2.88393438 C1028.80720353 2.88779266 1022.8064033 2.8869752 1016.80560106 2.88625254 C1004.52456239 2.8849365 992.24352909 2.88828813 979.96249199 2.89426994 C967.79697073 2.90018035 955.63145171 2.90403455 943.46592903 2.90512276 C942.71043878 2.9051915 941.95494852 2.90526024 941.17656462 2.90533106 C937.3400491 2.90566938 933.50353358 2.90597077 929.66701806 2.90625793 C902.46982367 2.90836018 875.2726322 2.91510263 848.07543945 2.92456055 C821.64835628 2.93374007 795.2212739 2.94082609 768.79418945 2.94506836 C767.98006051 2.94519989 767.16593156 2.94533141 766.32713204 2.94546692 C758.15155871 2.94678541 749.97598537 2.94806123 741.80041203 2.94930578 C725.14477843 2.95184222 708.48914488 2.95466347 691.83351135 2.95765686 C691.06765718 2.95779415 690.30180301 2.95793144 689.51274113 2.95807289 C638.34182618 2.96727864 587.17091294 2.98314518 536 3 C535.83470542 4.75496718 535.67105151 6.51008895 535.50808716 8.26527405 C535.37112018 9.73132379 535.37112018 9.73132379 535.23138618 11.2269907 C534.95741392 14.51036575 534.87059659 17.7641914 534.8671875 21.05859375 C534.86589844 22.26837891 534.86460937 23.47816406 534.86328125 24.72460938 C534.86714844 25.94986328 534.87101563 27.17511719 534.875 28.4375 C534.87113281 29.68982422 534.86726562 30.94214844 534.86328125 32.23242188 C534.86457031 33.43318359 534.86585938 34.63394531 534.8671875 35.87109375 C534.86831543 36.95318115 534.86944336 38.03526855 534.87060547 39.15014648 C534.89212946 41.91328097 534.89212946 41.91328097 535.58642578 44.15649414 C536.34080182 47.51912311 534.51917721 50.07015823 533 53 C530 55 530 55 526.5625 54.9375 C522.28033483 53.81061443 521.33893331 52.67546662 519 49 C518.484375 48.071875 517.96875 47.14375 517.4375 46.1875 C516.963125 45.465625 516.48875 44.74375 516 44 C515.01 44 514.02 44 513 44 C512.67 43.01 512.34 42.02 512 41 C511.34 41 510.68 41 510 41 C509.773125 40.4225 509.54625 39.845 509.3125 39.25 C507.66511725 36.42591529 505.56545162 35.0023037 503 33 C502.195625 31.88625 502.195625 31.88625 501.375 30.75 C500.92125 30.1725 500.4675 29.595 500 29 C499.01 29 498.02 29 497 29 C497 28.34 497 27.68 497 27 C496.28972656 26.66226563 495.57945312 26.32453125 494.84765625 25.9765625 C493.92855469 25.53054687 493.00945312 25.08453125 492.0625 24.625 C491.14597656 24.18414062 490.22945313 23.74328125 489.28515625 23.2890625 C487 22 487 22 486 20 C480.83417559 17.13009755 475.58957488 15.03521339 470.00390625 13.125 C467.50520207 12.18920442 465.16787121 11.14566232 462.7578125 10.01171875 C458.03620523 7.8923749 453.38396308 6.76264763 448.3125 5.8125 C447.51650391 5.64814453 446.72050781 5.48378906 445.90039062 5.31445312 C432.83553554 2.76747664 419.55556734 2.85381607 406.30241394 2.87301636 C404.55037778 2.87186191 402.79834185 2.87027221 401.04630643 2.86828911 C396.26839715 2.86414086 391.49050801 2.86616593 386.71259868 2.86927533 C381.54645015 2.87154744 376.38030496 2.86804098 371.2141571 2.86529541 C361.11175532 2.8608593 351.00936098 2.86180421 340.9069589 2.86470805 C332.70125539 2.86696895 324.49555397 2.86727163 316.28985023 2.86618423 C315.12083337 2.866031 313.95181651 2.86587777 312.7473749 2.86571989 C310.3725081 2.86540017 307.99764131 2.86507595 305.62277452 2.8647473 C283.38229863 2.86189926 261.14182688 2.86516978 238.90135167 2.87054767 C219.80231507 2.87502272 200.70328454 2.8742327 181.60424805 2.86962891 C159.42170131 2.86428434 137.23915817 2.86216586 115.05661088 2.86524117 C112.69458886 2.86555973 110.33256684 2.8658741 107.97054482 2.86618423 C106.80836082 2.86633851 105.64617683 2.86649279 104.44877514 2.86665174 C96.24268116 2.86751668 88.03658946 2.86605466 79.83049583 2.86370468 C69.84588254 2.86090814 59.86127711 2.86164215 49.87666472 2.86698543 C44.77884334 2.86962325 39.68103511 2.87062604 34.58321381 2.86733627 C29.92496281 2.86437544 25.26673726 2.86596249 20.6084886 2.87131383 C18.91576478 2.87243883 17.22303885 2.87184501 15.53031638 2.86943804 C13.24500348 2.86643546 10.95977993 2.869477 8.67447186 2.87415886 C7.40050476 2.87432121 6.12653766 2.87448356 4.8139655 2.87465084 C2.09648912 2.67853117 2.09648912 2.67853117 1 4 Z " fill="#080304" transform="translate(18,18)"/>
</svg>
