<?xml version="1.0" standalone="no"?><!DOCTYPE svg PUBLIC "-//W3C//DTD SVG 20010904//EN" "http://www.w3.org/TR/2001/REC-SVG-20010904/DTD/svg10.dtd"><svg version="1.0" xmlns="http://www.w3.org/2000/svg" width="505.000000" height="119.000000" viewBox="0 0 505.000000 119.000000" preserveAspectRatio="xMidYMid meet"><g transform="translate(0.000000,119.000000) scale(0.100000,-0.100000)" fill="#000000" stroke="none"><path d="M212 573 l3 -458 143 -3 142 -3 0 195 c0 157 3 196 14 206 16 13 10 22 177 -253 l91 -147 201 2 202 3 5 195 c4 164 7 195 20 198 11 2 46 -48 110 -153 52 -85 107 -175 123 -200 l27 -45 170 0 170 0 0 23 c0 12 -7 33 -16 45 -24 34 -13 35 36 1 75 -50 166 -72 274 -67 83 3 102 8 169 41 54 27 91 55 136 102 33 36 61 70 61 75 0 6 5 10 10 10 6 0 10 -45 10 -115 l0 -116 143 3 142 3 5 225 c4 186 7 225 19 225 8 0 75 -100 152 -225 l137 -225 401 -3 401 -2 0 101 0 101 -108 177 c-134 217 -136 221 -125 232 5 5 72 8 149 7 l139 -3 3 -308 2 -308 143 3 142 3 5 150 5 150 205 0 205 0 5 -150 5 -150 143 -3 142 -3 0 461 0 461 -142 -3 -143 -3 -5 -150 -5 -150 -205 0 -205 0 -5 150 -5 150 -619 3 c-386 1 -623 -1 -629 -7 -7 -7 20 -61 74 -150 l83 -140 65 -3 65 -3 89 -148 c59 -98 87 -151 80 -158 -5 -5 -47 -9 -92 -7 l-83 3 -157 260 c-87 143 -171 281 -187 308 l-29 47 -202 0 -203 0 0 -115 c0 -70 -4 -115 -10 -115 -5 0 -10 4 -10 9 0 19 -113 132 -157 158 -267 156 -611 8 -683 -295 -7 -31 -11 -87 -8 -133 3 -43 4 -79 2 -79 -2 0 -106 170 -278 452 l-71 117 -187 1 -188 0 0 -217 c0 -233 -6 -265 -39 -226 -11 13 -77 117 -147 233 l-128 210 -188 0 -188 0 2 -457z m1948 135 c57 -39 75 -72 75 -138 0 -66 -18 -99 -75 -138 -63 -42 -167 -22 -212 41 -31 43 -36 130 -10 177 41 75 154 104 222 58z"/></g></svg>