<?xml version="1.0" standalone="no"?><!DOCTYPE svg PUBLIC "-//W3C//DTD SVG 20010904//EN" "http://www.w3.org/TR/2001/REC-SVG-20010904/DTD/svg10.dtd"><svg version="1.0" xmlns="http://www.w3.org/2000/svg" width="66.000000" height="25.000000" viewBox="0 0 66.000000 25.000000" preserveAspectRatio="xMidYMid meet"><g transform="translate(0.000000,25.000000) scale(0.100000,-0.100000)" fill="#000000" stroke="none"><path d="M60 186 c0 -19 6 -36 13 -39 10 -4 10 -7 0 -18 -7 -7 -13 -30 -13 -51 l0 -38 53 0 52 0 35 55 c19 30 40 55 47 55 11 0 53 51 53 64 0 3 -54 6 -120 6 l-120 0 0 -34z"/><path d="M288 172 c-18 -27 -41 -53 -51 -58 -10 -5 -28 -24 -39 -41 l-20 -33 86 0 86 0 36 54 c19 30 43 56 52 59 9 2 25 18 35 36 l18 31 -85 0 -86 0 -32 -48z"/><path d="M486 189 c-10 -17 -40 -53 -67 -80 -27 -27 -49 -54 -49 -59 0 -6 48 -10 120 -10 l120 0 0 40 c0 24 -5 40 -12 40 -9 0 -9 3 0 12 7 7 12 29 12 50 l0 38 -53 0 c-48 0 -54 -3 -71 -31z"/></g></svg>