<svg version="1.1" xmlns="http://www.w3.org/2000/svg" width="176" height="134.667" viewBox="0 0 132 101">
  <defs>
    <path id="shape" d="M43.2 17C27.7 22.5 20 33.6 20 50c0 6.7.5 9.1 2.8 14.3C26.1 71.4 32 77.4 39.5 81c4.7 2.4 6.2 2.5 24.1 2.8 31.3.5 36.3-2.1 49.5-26.3 8.1-14.8 9.9-19.5 9.9-26.3 0-7-2.5-11.4-8-14.3-3.2-1.7-6.2-1.9-35-1.9-28.4.1-32 .3-36.8 2"/>
  </defs>

  <use href="#shape" fill="#660D00" />

  <use href="#shape" fill="#BF2406" transform="translate(1, 1) scale(0.985)" />

  <use href="#shape" 
       fill="none" 
       stroke="#660D00" 
       stroke-width="1.2" 
       stroke-linejoin="round"
       transform="scale(0.88) translate(9, 7)" />

  <g stroke="#000000" stroke-width="7" stroke-linecap="butt">
      <line x1="55" y1="39" x2="77" y2="61" />
      <line x1="77" y1="39" x2="55" y2="61" />
  </g>
</svg>
