<?xml version="1.0" encoding="UTF-8"?>
<!-- Generator: https://ezgif.com/webp-to-svg -->
<svg version="1.1" xmlns="http://www.w3.org/2000/svg" width="239" height="120">
<path d="M0 0 C8.25 0 16.5 0 25 0 C24.2 2.74 23.39 5.49 22.56 8.31 C22.18 9.6 22.18 9.6 21.8 10.92 C21.6 11.6 21.4 12.28 21.19 12.99 C20.99 13.68 20.78 14.38 20.57 15.1 C20.08 16.74 19.54 18.37 19 20 C29.56 20 40.12 20 51 20 C48.75 31.25 48.75 31.25 47.27 35.35 C46.81 36.66 46.81 36.66 46.34 37.99 C45.86 39.29 45.86 39.29 45.38 40.62 C45.05 41.53 44.73 42.44 44.39 43.38 C43.6 45.59 42.8 47.79 42 50 C44.97 50 47.94 50 51 50 C51.38 48.11 51.38 48.11 51.77 46.19 C53.01 40.64 54.78 35.31 56.62 29.94 C57.74 26.66 58.85 23.38 60 20 C67.92 20 75.84 20 84 20 C83.36 24.5 82.83 28.01 81.5 32.19 C81.19 33.16 80.89 34.12 80.58 35.11 C80.08 36.64 80.08 36.64 79.58 38.2 C79.24 39.27 78.89 40.34 78.54 41.45 C77.82 43.71 77.09 45.97 76.36 48.23 C75.26 51.66 74.17 55.08 73.08 58.51 C72.37 60.72 71.66 62.93 70.95 65.14 C70.63 66.15 70.31 67.16 69.98 68.2 C63.06 89.55 63.06 89.55 56 94 C53.07 94.98 51.21 95.12 48.16 95.11 C46.69 95.11 46.69 95.11 45.19 95.11 C44.13 95.11 43.08 95.1 41.99 95.1 C40.9 95.1 39.82 95.09 38.71 95.09 C35.24 95.09 31.78 95.08 28.31 95.06 C25.97 95.06 23.62 95.05 21.27 95.05 C15.51 95.04 9.76 95.02 4 95 C7.08 84.44 7.08 84.44 9 80 C10.34 79.99 10.34 79.99 11.71 79.97 C15.02 79.93 18.34 79.87 21.65 79.79 C23.09 79.76 24.52 79.74 25.96 79.73 C28.02 79.71 30.08 79.66 32.14 79.61 C33.39 79.59 34.63 79.57 35.91 79.55 C39.06 79.29 39.06 79.29 40.87 77.15 C42.12 74.92 42.12 74.92 43 72 C42.14 72.02 41.29 72.05 40.4 72.07 C25.44 72.31 25.44 72.31 21.29 68.38 C17.24 63.8 15.67 60.97 15.7 54.66 C16.24 49.84 18.13 45.46 20 41 C17.36 41.33 14.72 41.66 12 42 C11.61 43.2 11.61 43.2 11.21 44.43 C10.23 47.41 9.25 50.39 8.26 53.37 C7.84 54.66 7.42 55.95 7 57.24 C6.39 59.09 5.78 60.95 5.16 62.8 C4.8 63.92 4.43 65.03 4.05 66.18 C3 69 3 69 1 72 C-1.34 72.34 -1.34 72.34 -4.23 72.29 C-5.26 72.28 -6.29 72.27 -7.35 72.26 C-8.97 72.23 -8.97 72.23 -10.62 72.19 C-11.71 72.17 -12.8 72.16 -13.92 72.15 C-16.62 72.11 -19.31 72.06 -22 72 C-21.36 65.94 -19.71 60.45 -17.83 54.67 C-17.51 53.68 -17.2 52.69 -16.87 51.67 C-15.86 48.5 -14.83 45.35 -13.81 42.19 C-13.14 40.11 -12.48 38.03 -11.81 35.95 C-7.95 23.94 -4.01 11.96 0 0 Z " fill="#FDFDFD" transform="translate(137,13)"/>
<path d="M0 0 C1.06 0 2.12 0 3.21 0 C4.92 0.01 4.92 0.01 6.67 0.02 C7.84 0.02 9.01 0.02 10.21 0.02 C13.95 0.03 17.69 0.04 21.43 0.05 C23.97 0.06 26.5 0.06 29.04 0.06 C35.25 0.08 41.47 0.09 47.68 0.11 C46.89 2.86 46.1 5.61 45.31 8.36 C45.08 9.14 44.86 9.92 44.63 10.72 C44.41 11.47 44.2 12.23 43.97 13 C43.77 13.7 43.57 14.39 43.37 15.1 C42.68 17.11 42.68 17.11 40.68 21.11 C27.48 21.44 14.28 21.77 0.68 22.11 C-0.31 24.75 -1.3 27.39 -2.32 30.11 C21.77 30.11 45.86 30.11 70.68 30.11 C67.28 45.43 67.28 45.43 62.74 50.11 C58.27 52.28 53.69 52.24 48.8 52.26 C48.13 52.26 47.45 52.27 46.76 52.27 C44.55 52.28 42.34 52.28 40.13 52.28 C38.58 52.28 37.03 52.29 35.49 52.29 C32.25 52.3 29.02 52.3 25.78 52.3 C21.65 52.3 17.51 52.31 13.38 52.33 C10.19 52.34 6.99 52.34 3.8 52.34 C2.28 52.34 0.76 52.35 -0.77 52.36 C-2.91 52.37 -5.04 52.36 -7.18 52.36 C-9 52.36 -9 52.36 -10.85 52.36 C-15.39 52.04 -19.71 51.45 -23.28 48.49 C-23.75 47.89 -24.21 47.29 -24.69 46.68 C-25.18 46.08 -25.66 45.48 -26.16 44.87 C-28.7 41.03 -28.62 37.59 -28.32 33.11 C-27.44 29.52 -26.27 26.05 -25.07 22.55 C-24.77 21.63 -24.47 20.71 -24.16 19.76 C-21.9 13.07 -19.71 7.03 -13.32 3.3 C-12.66 2.9 -12 2.5 -11.32 2.09 C-7.56 0.25 -4.16 -0.01 0 0 Z " fill="#FDFDFD" transform="translate(41.3193359375,32.886474609375)"/>
<path d="M0 0 C16.83 0 33.66 0 51 0 C49 9 49 9 46 19 C77.68 19.49 77.68 19.49 110 20 C111.15 23.45 110.86 24.12 109.69 27.44 C109.36 28.39 109.04 29.35 108.7 30.33 C108.32 31.39 107.95 32.46 107.56 33.56 C106.73 35.98 105.9 38.39 105.08 40.81 C104.85 41.49 104.62 42.17 104.38 42.87 C102.17 49.41 100.09 55.98 98.01 62.56 C97.66 63.67 97.31 64.77 96.95 65.91 C95.53 70.41 94.11 74.91 92.7 79.41 C91.7 82.62 90.69 85.83 89.67 89.04 C89.38 89.99 89.08 90.95 88.78 91.93 C85.59 101.94 82.1 111.06 73 117 C68 119.46 64.44 120.37 58.78 120.34 C58.1 120.34 57.41 120.34 56.71 120.34 C54.47 120.34 52.24 120.32 50 120.29 C48.44 120.29 46.89 120.28 45.33 120.28 C41.24 120.27 37.16 120.24 33.07 120.21 C28.89 120.18 24.72 120.16 20.54 120.15 C12.36 120.11 4.18 120.06 -4 120 C-1.98 112.22 0.39 104.6 3 97 C2.17 97.01 2.17 97.01 1.33 97.01 C-12.16 97.1 -25.64 97.17 -39.12 97.21 C-45.64 97.23 -52.16 97.26 -58.68 97.3 C-64.97 97.35 -71.27 97.37 -77.56 97.38 C-79.96 97.39 -82.36 97.4 -84.76 97.42 C-88.12 97.45 -91.49 97.46 -94.86 97.45 C-95.84 97.47 -96.83 97.48 -97.84 97.5 C-106.1 97.45 -114.38 95.5 -120.38 89.44 C-126.02 83.29 -128.46 75.93 -128.3 67.65 C-127.66 62.06 -125.74 56.81 -123.94 51.5 C-123.57 50.33 -123.2 49.16 -122.81 47.95 C-119.37 37.62 -114.72 29.48 -104.84 24.33 C-93.83 19.15 -82.32 19.6 -70.45 19.71 C-68.59 19.71 -66.72 19.72 -64.85 19.72 C-59.98 19.73 -55.11 19.76 -50.24 19.79 C-45.25 19.82 -40.26 19.84 -35.27 19.85 C-25.52 19.89 -15.76 19.94 -6 20 C-5.82 19.31 -5.64 18.62 -5.45 17.91 C-5.2 16.97 -4.95 16.03 -4.69 15.06 C-4.44 14.15 -4.2 13.23 -3.95 12.29 C-2.76 8.15 -1.36 4.08 0 0 Z M4 5 C-0.15 15.31 -0.15 15.31 -2 26 C-3.15 25.99 -4.29 25.98 -5.47 25.97 C-16.28 25.89 -27.1 25.83 -37.91 25.79 C-43.47 25.77 -49.03 25.74 -54.59 25.7 C-59.96 25.65 -65.32 25.63 -70.69 25.62 C-72.74 25.61 -74.78 25.6 -76.83 25.58 C-79.7 25.55 -82.57 25.54 -85.44 25.55 C-86.28 25.53 -87.12 25.52 -87.98 25.5 C-95.67 25.56 -102.5 28.12 -108.31 33.25 C-108.93 33.77 -109.54 34.29 -110.18 34.83 C-118.22 44.41 -123.13 60.94 -122.45 73.23 C-121.49 79.11 -119.37 82.63 -115.19 86.81 C-107.87 91.83 -102.36 92.43 -93.65 92.34 C-92.53 92.34 -91.4 92.34 -90.25 92.34 C-86.55 92.34 -82.86 92.32 -79.16 92.29 C-76.59 92.29 -74.02 92.28 -71.46 92.28 C-65.4 92.27 -59.34 92.25 -53.28 92.22 C-46.37 92.18 -39.47 92.17 -32.57 92.15 C-18.38 92.12 -4.19 92.07 10 92 C9.79 92.62 9.58 93.24 9.36 93.88 C8.4 96.69 7.45 99.5 6.5 102.31 C6.17 103.29 5.83 104.27 5.49 105.27 C5.17 106.21 4.86 107.15 4.53 108.11 C4.09 109.41 4.09 109.41 3.64 110.73 C2.86 113.09 2.86 113.09 3 116 C10.79 116.08 18.58 116.13 26.38 116.16 C29.02 116.18 31.67 116.2 34.32 116.23 C38.14 116.26 41.96 116.28 45.77 116.29 C46.95 116.31 48.12 116.32 49.33 116.34 C57.76 116.34 66.86 115.8 73.38 109.81 C73.98 109.28 74.59 108.75 75.21 108.21 C81.28 100.72 83.54 90.75 86.42 81.72 C86.93 80.14 87.44 78.57 87.95 76.99 C89.01 73.7 90.07 70.41 91.13 67.12 C92.48 62.89 93.85 58.66 95.21 54.44 C96.51 50.41 97.81 46.38 99.11 42.35 C99.36 41.58 99.61 40.8 99.86 40.01 C100.56 37.84 101.26 35.67 101.95 33.5 C102.55 31.65 102.55 31.65 103.15 29.76 C104.05 27.32 104.05 27.32 104 26 C82.22 26 60.44 26 38 26 C39.98 20.06 41.96 14.12 44 8 C44 7.01 44 6.02 44 5 C30.8 5 17.6 5 4 5 Z " fill="#FDFDFD" transform="translate(128,0)"/>
<path d="M0 0 C7.92 0 15.84 0 24 0 C22.08 7.02 20.09 14.03 18 21 C9.75 21 1.5 21 -7 21 C-4 9 -4 9 0 0 Z " fill="#FDFDFD" transform="translate(98,33)"/>
</svg>
