<?xml version="1.0" encoding="UTF-8"?>
<!-- Generator: https://ezgif.com/webp-to-svg -->
<svg version="1.1" xmlns="http://www.w3.org/2000/svg" width="316" height="72">
<path d="M0 0 C5.94 0 11.88 0 18 0 C17.19 2.64 17.19 2.64 16.36 5.34 C15.63 7.68 14.91 10.03 14.19 12.38 C13.83 13.53 13.47 14.69 13.11 15.88 C11.04 22.58 9 29.28 7 36 C10.63 36 14.26 36 18 36 C18.99 33.03 18.99 33.03 20 30 C17.69 30 15.38 30 13 30 C15.48 22.58 15.48 22.58 18 15 C20.21 14.94 22.41 14.88 24.69 14.81 C25.93 14.78 27.17 14.74 28.45 14.71 C32.22 15.02 34.01 15.75 37 18 C39.59 21.45 39.22 24.8 39 29 C38.33 32.12 37.38 35.1 36.38 38.12 C36.02 39.3 36.02 39.3 35.66 40.5 C35.41 41.27 35.16 42.03 34.9 42.82 C34.57 43.85 34.57 43.85 34.23 44.89 C32.28 48.24 30.52 50.41 27 52 C21.92 52.7 16.87 52.58 11.76 52.49 C10.26 52.48 8.77 52.47 7.28 52.47 C3.36 52.45 -0.55 52.4 -4.47 52.34 C-8.47 52.29 -12.47 52.27 -16.48 52.24 C-24.32 52.19 -32.16 52.11 -40 52 C-39.53 50.24 -39.05 48.48 -38.57 46.72 C-38.31 45.74 -38.04 44.76 -37.77 43.75 C-36.92 40.71 -35.92 37.76 -34.81 34.81 C-34.3 33.43 -34.3 33.43 -33.77 32.02 C-33.52 31.35 -33.26 30.69 -33 30 C-35.97 30 -38.94 30 -42 30 C-42.11 30.99 -42.22 31.98 -42.34 33 C-42.93 37.16 -44.18 40.98 -45.56 44.94 C-46.37 47.27 -47.17 49.6 -48 52 C-53.94 52 -59.88 52 -66 52 C-64.28 44.87 -62.42 37.93 -60 31 C-62.64 30.67 -65.28 30.34 -68 30 C-68.1 30.62 -68.2 31.23 -68.3 31.87 C-70.75 45.77 -70.75 45.77 -75.6 50.59 C-78.87 52.51 -81.85 52.43 -85.53 52.4 C-86.29 52.41 -87.04 52.42 -87.82 52.42 C-90.3 52.44 -92.79 52.44 -95.28 52.43 C-97.01 52.44 -98.74 52.44 -100.47 52.45 C-104.1 52.46 -107.72 52.46 -111.35 52.45 C-116 52.43 -120.64 52.45 -125.29 52.48 C-128.86 52.5 -132.44 52.5 -136.01 52.5 C-137.72 52.5 -139.44 52.5 -141.15 52.51 C-143.54 52.53 -145.94 52.52 -148.34 52.5 C-149.04 52.51 -149.75 52.52 -150.47 52.53 C-155.25 52.46 -157.63 51.35 -161 48 C-163.26 44.66 -163.05 42.2 -162.38 38.38 C-161.95 36.58 -161.49 34.78 -161 33 C-160.74 32.05 -160.48 31.1 -160.21 30.12 C-158.18 23.65 -155.74 19.7 -150 16 C-147.03 14.51 -144.34 14.89 -141.02 14.9 C-140.34 14.9 -139.65 14.91 -138.95 14.91 C-136.76 14.91 -134.57 14.92 -132.38 14.94 C-130.89 14.94 -129.41 14.95 -127.92 14.95 C-124.28 14.96 -120.64 14.98 -117 15 C-117.7 20.46 -119.18 24.54 -121 30 C-127.93 30 -134.86 30 -142 30 C-142.33 31.98 -142.66 33.96 -143 36 C-130.13 36.49 -130.13 36.49 -117 37 C-116.34 34.03 -115.68 31.06 -115 28 C-113.11 22.75 -110.79 19.07 -106 16 C-102.36 14.79 -99 14.84 -95.21 14.82 C-94.42 14.82 -93.63 14.81 -92.81 14.8 C-90.19 14.78 -87.57 14.77 -84.95 14.76 C-83.6 14.76 -83.6 14.76 -82.23 14.75 C-77.49 14.73 -72.75 14.71 -68.01 14.7 C-63.12 14.69 -58.22 14.66 -53.33 14.62 C-49.57 14.59 -45.8 14.59 -42.04 14.58 C-40.23 14.58 -38.43 14.57 -36.62 14.55 C-34.1 14.52 -31.57 14.52 -29.05 14.53 C-28.3 14.52 -27.56 14.5 -26.79 14.49 C-21.9 14.54 -19.45 15.55 -16 19 C-13.77 21.84 -14.01 23.17 -14.25 26.88 C-14.8 30.4 -15.75 33.66 -17 37 C-14.52 36.51 -14.52 36.51 -12 36 C-8.04 24.12 -4.08 12.24 0 0 Z M-98 30 C-98.33 32.31 -98.66 34.62 -99 37 C-95.04 37 -91.08 37 -87 37 C-86.34 34.69 -85.68 32.38 -85 30 C-89.29 30 -93.58 30 -98 30 Z " fill="#FDFDFD" transform="translate(173,10)"/>
<path d="M0 0 C13.2 0 26.4 0 40 0 C39.01 3.63 38.02 7.26 37 11 C37 11.99 37 12.98 37 14 C38.2 14.27 39.39 14.54 40.62 14.81 C43.62 15.52 45.32 16.2 48 17.88 C50.81 19.29 50.81 19.29 52.94 18.34 C55 17.28 55 17.28 56.88 16.08 C62.98 12.98 70.65 13.78 77.31 13.75 C78.95 13.72 78.95 13.72 80.62 13.69 C87.42 13.65 92.68 14.47 99 17 C100.98 11.39 102.96 5.78 105 0 C118.2 0 131.4 0 145 0 C143.68 4.29 142.36 8.58 141 13 C144.3 13.33 147.6 13.66 151 14 C150.43 18.72 149.5 23.01 148 27.52 C147.41 29.3 147.41 29.3 146.81 31.12 C146.19 32.95 146.19 32.95 145.56 34.81 C145.15 36.05 144.75 37.29 144.33 38.57 C143.93 39.75 143.54 40.93 143.13 42.14 C142.77 43.22 142.41 44.3 142.04 45.41 C141 48 141 48 139 50 C136.4 50.2 136.4 50.2 133.38 50.12 C132.37 50.11 131.37 50.09 130.34 50.07 C129.18 50.04 129.18 50.04 128 50 C126.78 55.69 125.77 61.28 125.34 67.09 C125 69 125 69 123 72 C120.1 72.38 120.1 72.38 116.35 72.39 C115.33 72.4 115.33 72.4 114.28 72.4 C112.01 72.42 109.75 72.41 107.48 72.4 C105.91 72.4 104.34 72.4 102.76 72.41 C99.46 72.41 96.15 72.41 92.84 72.39 C88.62 72.37 84.39 72.38 80.16 72.4 C76.91 72.41 73.65 72.41 70.4 72.4 C68.84 72.4 67.28 72.4 65.72 72.41 C63.54 72.42 61.35 72.4 59.17 72.39 C57.93 72.39 56.68 72.38 55.4 72.38 C51.67 71.96 49.27 70.78 46 69 C43.59 69.22 42.03 69.98 39.86 71.03 C36.31 72.23 33.04 72.28 29.34 72.26 C28.58 72.26 27.81 72.27 27.03 72.27 C24.47 72.28 21.92 72.28 19.36 72.27 C17.53 72.28 15.69 72.28 13.86 72.29 C8.88 72.3 3.91 72.3 -1.07 72.3 C-5.23 72.3 -9.38 72.31 -13.54 72.31 C-23.34 72.32 -33.14 72.32 -42.94 72.32 C-53.06 72.31 -63.17 72.32 -73.28 72.34 C-81.96 72.36 -90.65 72.37 -99.33 72.36 C-104.52 72.36 -109.7 72.36 -114.89 72.38 C-119.76 72.39 -124.64 72.39 -129.52 72.38 C-131.3 72.37 -133.09 72.38 -134.88 72.38 C-137.33 72.39 -139.77 72.39 -142.21 72.37 C-142.92 72.38 -143.63 72.39 -144.35 72.4 C-149.92 72.34 -153.9 70.88 -158.05 67.17 C-163.4 60.95 -165.48 56.36 -165 48 C-164.17 44.42 -163.05 40.98 -161.88 37.5 C-161.59 36.59 -161.31 35.68 -161.02 34.74 C-158.47 27.08 -154.84 20.98 -147.5 17.12 C-146.43 16.54 -146.43 16.54 -145.34 15.95 C-138.98 13.38 -132.11 13.85 -125.37 13.84 C-123.62 13.83 -123.62 13.83 -121.84 13.82 C-117.99 13.81 -114.14 13.8 -110.3 13.8 C-108.29 13.79 -106.29 13.79 -104.29 13.78 C-98.71 13.77 -93.13 13.76 -87.55 13.76 C-80.36 13.76 -73.17 13.74 -65.98 13.71 C-60.4 13.69 -54.83 13.68 -49.25 13.68 C-45.93 13.68 -42.61 13.67 -39.28 13.65 C-35.57 13.64 -31.86 13.64 -28.15 13.64 C-26.52 13.63 -26.52 13.63 -24.86 13.62 C-18.09 13.65 -12.36 14.68 -6 17 C-5.57 15.87 -5.13 14.73 -4.69 13.56 C-4.44 12.92 -4.2 12.29 -3.95 11.63 C-2.56 7.78 -1.29 3.88 0 0 Z M4 4 C2.68 7.3 1.36 10.6 0 14 C-1.33 17.33 -2.67 20.67 -4 24 C-4.43 23.65 -4.86 23.29 -5.31 22.93 C-11.57 18.36 -17.05 18.29 -24.62 18.37 C-26.49 18.36 -26.49 18.36 -28.4 18.35 C-31.8 18.33 -35.2 18.34 -38.6 18.36 C-42.17 18.38 -45.73 18.37 -49.3 18.36 C-55.3 18.36 -61.29 18.38 -67.28 18.4 C-74.19 18.44 -81.1 18.44 -88.01 18.42 C-94.68 18.4 -101.35 18.41 -108.02 18.43 C-110.85 18.43 -113.68 18.43 -116.51 18.42 C-120.46 18.42 -124.42 18.44 -128.38 18.47 C-129.54 18.46 -130.71 18.45 -131.91 18.45 C-140.21 18.54 -145.81 19.86 -151.8 25.76 C-154.25 29.37 -155.8 32.78 -157.25 36.88 C-157.51 37.54 -157.76 38.21 -158.02 38.9 C-160.56 45.82 -162.02 52.2 -159.02 59.18 C-156.69 63.34 -153.42 66.3 -149 68 C-146.48 68.2 -144.07 68.28 -141.56 68.27 C-140.8 68.28 -140.05 68.28 -139.28 68.29 C-136.75 68.31 -134.23 68.31 -131.71 68.31 C-129.9 68.31 -128.09 68.32 -126.28 68.33 C-121.36 68.35 -116.45 68.36 -111.53 68.37 C-108.46 68.37 -105.39 68.38 -102.32 68.38 C-91.6 68.41 -80.87 68.42 -70.15 68.43 C-60.16 68.43 -50.18 68.46 -40.19 68.5 C-31.61 68.54 -23.03 68.55 -14.46 68.55 C-9.33 68.55 -4.21 68.56 0.91 68.59 C5.73 68.62 10.55 68.62 15.37 68.6 C17.14 68.6 18.9 68.61 20.67 68.62 C33.64 68.81 33.64 68.81 45 63 C46 63.81 46.99 64.63 48.02 65.47 C54.36 69.4 61.48 68.62 68.66 68.49 C70.17 68.48 71.68 68.47 73.2 68.47 C77.15 68.45 81.11 68.4 85.07 68.34 C89.12 68.29 93.17 68.27 97.22 68.24 C105.15 68.19 113.07 68.11 121 68 C121.13 67.12 121.26 66.25 121.4 65.34 C121.57 64.18 121.75 63.03 121.93 61.83 C122.1 60.69 122.27 59.54 122.45 58.36 C123.13 54.19 124.02 50.11 125 46 C128.96 46 132.92 46 137 46 C139.6 40.32 141.44 34.56 143.19 28.56 C143.46 27.64 143.73 26.72 144.01 25.77 C144.68 23.51 145.34 21.26 146 19 C140.56 18.5 140.56 18.5 135 18 C135.29 17.16 135.58 16.31 135.88 15.45 C136.25 14.35 136.62 13.25 137 12.12 C137.37 11.03 137.74 9.94 138.12 8.82 C139.1 6.17 139.1 6.17 139 4 C128.77 4 118.54 4 108 4 C106.02 10.27 104.04 16.54 102 23 C97 21 97 21 95.13 19.9 C90.35 17.89 84.6 18.63 79.47 18.63 C77.27 18.63 75.08 18.59 72.88 18.55 C65.29 18.49 59.58 18.85 53 23 C50.96 23.74 50.96 23.74 49 24 C46.44 22.12 46.44 22.12 44 20 C40.85 18.95 38.61 18.9 35.31 18.94 C34.32 18.95 33.32 18.96 32.3 18.96 C31.54 18.98 30.78 18.99 30 19 C30.29 18.08 30.58 17.17 30.88 16.23 C31.43 14.44 31.43 14.44 32 12.62 C32.56 10.85 32.56 10.85 33.12 9.04 C34.09 6.21 34.09 6.21 34 4 C24.1 4 14.2 4 4 4 Z " fill="#FDFDFD" transform="translate(165,0)"/>
<path d="M0 0 C0.75 0.01 1.5 0.01 2.27 0.02 C3.08 0.02 3.89 0.02 4.72 0.03 C5.57 0.03 6.42 0.04 7.3 0.05 C8.15 0.06 9 0.06 9.88 0.06 C12 0.08 14.12 0.09 16.23 0.11 C14.58 5.06 12.93 10.01 11.23 15.11 C14.86 15.11 18.49 15.11 22.23 15.11 C21.15 20.24 20.01 25.17 18.23 30.11 C14.27 30.11 10.31 30.11 6.23 30.11 C5.8 31.7 5.37 33.29 4.92 34.93 C4.1 37.94 3.28 40.95 2.46 43.95 C2.19 44.96 1.91 45.96 1.63 47 C1.16 48.7 0.7 50.41 0.23 52.11 C-4.07 52.24 -8.37 52.33 -12.68 52.39 C-14.14 52.41 -15.61 52.45 -17.07 52.49 C-19.18 52.55 -21.29 52.58 -23.4 52.6 C-25.3 52.64 -25.3 52.64 -27.24 52.68 C-31.9 51.93 -33.47 50.42 -36.77 47.11 C-38.67 42.57 -38 38.07 -36.33 33.55 C-35.55 31.85 -35.55 31.85 -34.77 30.11 C-38.73 30.11 -42.69 30.11 -46.77 30.11 C-47.43 32.42 -48.09 34.73 -48.77 37.11 C-45.8 37.11 -42.83 37.11 -39.77 37.11 C-40.22 38.86 -40.68 40.61 -41.14 42.36 C-41.52 43.83 -41.52 43.83 -41.91 45.32 C-42.66 47.77 -43.54 49.87 -44.77 52.11 C-47.31 52.25 -49.85 52.35 -52.39 52.43 C-53.1 52.47 -53.82 52.51 -54.55 52.55 C-58.54 52.64 -61.03 52.33 -64.22 49.8 C-66.77 47.11 -67.86 45.43 -68.07 41.69 C-67.1 33.52 -63.92 24.51 -58.77 18.11 C-52.55 14.33 -46.86 14.62 -39.77 14.67 C-37.7 14.68 -35.64 14.65 -33.58 14.62 C-32.27 14.62 -30.96 14.62 -29.61 14.62 C-28.41 14.62 -27.22 14.61 -25.99 14.61 C-21.54 15.3 -19.13 17.37 -16.39 20.86 C-14.89 26.28 -16.86 32.02 -18.77 37.11 C-16.29 36.62 -16.29 36.62 -13.77 36.11 C-13.44 35.06 -13.11 34 -12.77 32.92 C-11.56 29.01 -10.34 25.11 -9.12 21.21 C-8.59 19.52 -8.07 17.83 -7.54 16.14 C-6.79 13.72 -6.03 11.29 -5.27 8.87 C-5.03 8.11 -4.8 7.35 -4.56 6.56 C-2.55 0.16 -2.55 0.16 0 0 Z " fill="#FDFDFD" transform="translate(279.765869140625,9.886474609375)"/>
</svg>
