<?xml version="1.0" encoding="UTF-8"?>
<!-- Generator: https://ezgif.com/webp-to-svg -->
<svg version="1.1" xmlns="http://www.w3.org/2000/svg" width="252" height="72">
<path d="M0 0 C6.93 0 13.86 0 21 0 C22.09 4.37 21.77 5.52 20.35 9.64 C19.98 10.71 19.62 11.78 19.24 12.88 C18.85 13.99 18.46 15.11 18.06 16.25 C17.68 17.38 17.29 18.5 16.89 19.66 C15.94 22.45 14.97 25.22 14 28 C17.3 28 20.6 28 24 28 C24.39 26.52 24.78 25.03 25.19 23.5 C26.57 18.43 28.07 13.4 29.62 8.38 C29.84 7.66 30.06 6.95 30.29 6.22 C31.88 1.12 31.88 1.12 33 0 C34.63 -0.09 36.27 -0.11 37.91 -0.1 C39.39 -0.09 39.39 -0.09 40.91 -0.09 C41.95 -0.08 42.99 -0.07 44.06 -0.06 C45.63 -0.06 45.63 -0.06 47.23 -0.05 C49.82 -0.04 52.41 -0.02 55 0 C53.65 6.5 51.92 12.75 49.88 19.06 C49.6 19.93 49.32 20.79 49.04 21.69 C48.36 23.79 47.68 25.9 47 28 C50.3 28 53.6 28 57 28 C57.27 26.71 57.53 25.42 57.81 24.09 C58.92 19.11 60.42 14.33 62.06 9.5 C62.47 8.29 62.47 8.29 62.88 7.05 C64.87 1.13 64.87 1.13 66 0 C67.56 -0.09 69.13 -0.11 70.69 -0.1 C71.64 -0.09 72.58 -0.09 73.55 -0.09 C74.55 -0.08 75.54 -0.07 76.56 -0.06 C77.56 -0.06 78.56 -0.05 79.58 -0.05 C82.06 -0.04 84.53 -0.02 87 0 C88.48 2.96 87.36 4.57 86.35 7.66 C86.02 8.67 85.69 9.68 85.36 10.73 C84.72 12.66 84.72 12.66 84.06 14.62 C82.05 20.75 82.05 20.75 80 27 C89.57 27.33 99.14 27.66 109 28 C105.39 41.23 105.39 41.23 102 45 C96.53 47.91 92.18 48.42 86.05 48.33 C85.17 48.33 84.3 48.33 83.4 48.32 C80.52 48.32 77.63 48.28 74.75 48.25 C72.73 48.23 70.71 48.22 68.68 48.21 C64.39 48.17 60.09 48.13 55.79 48.07 C49.99 48 44.19 47.98 38.38 47.96 C33.72 47.94 29.06 47.89 24.4 47.84 C22.14 47.82 19.88 47.81 17.63 47.81 C14.46 47.8 11.29 47.76 8.12 47.71 C7.19 47.71 6.25 47.71 5.28 47.72 C0.89 47.62 -2.07 47.4 -5.55 44.57 C-9.58 40.34 -10.21 38.06 -10.16 32.16 C-9.91 28.79 -8.91 25.84 -7.81 22.66 C-7.59 22 -7.37 21.35 -7.14 20.67 C-6.44 18.61 -5.72 16.56 -5 14.5 C-4.52 13.09 -4.04 11.68 -3.55 10.27 C-2.38 6.84 -1.19 3.42 0 0 Z " fill="#FDFDFD" transform="translate(23,12)"/>
<path d="M0 0 C0.92 0 1.85 0.01 2.8 0.01 C3.77 0.01 4.74 0.01 5.75 0.01 C9.03 0 12.32 0.01 15.6 0.02 C17.95 0.02 20.29 0.02 22.64 0.02 C29.03 0.01 35.41 0.02 41.8 0.03 C47.8 0.03 53.79 0.03 59.78 0.04 C71.65 0.04 83.53 0.04 95.4 0.05 C106.94 0.06 118.48 0.07 130.01 0.07 C130.72 0.07 131.43 0.07 132.17 0.07 C135.73 0.08 139.3 0.08 142.86 0.08 C172.45 0.09 202.05 0.11 231.64 0.13 C231.16 2.06 230.69 3.98 230.21 5.91 C229.94 6.98 229.68 8.06 229.4 9.16 C228.6 12.31 227.67 15.39 226.63 18.47 C226.27 19.54 225.91 20.61 225.53 21.72 C225.16 22.82 224.78 23.93 224.39 25.07 C223.59 27.43 222.78 29.8 221.98 32.17 C221.59 33.34 221.19 34.51 220.78 35.71 C219.72 38.9 218.7 42.09 217.71 45.3 C217.41 46.25 217.11 47.2 216.8 48.17 C216.26 49.92 215.72 51.66 215.2 53.42 C212.87 60.75 209.34 65.85 202.62 69.79 C194.72 73.58 186.14 72.83 177.58 72.78 C175.66 72.78 173.73 72.79 171.8 72.8 C166.59 72.83 161.39 72.82 156.18 72.8 C150.71 72.79 145.25 72.8 139.79 72.81 C130.61 72.82 121.44 72.8 112.27 72.78 C101.68 72.75 91.09 72.76 80.5 72.79 C71.39 72.81 62.28 72.82 53.18 72.8 C47.74 72.8 42.31 72.79 36.88 72.81 C31.77 72.83 26.66 72.81 21.55 72.79 C19.68 72.78 17.81 72.78 15.94 72.79 C-4.07 72.9 -4.07 72.9 -12.48 65.18 C-18.68 58.81 -20.67 52.56 -20.57 43.81 C-20.23 39.46 -18.96 35.55 -17.55 31.44 C-17.26 30.57 -16.98 29.7 -16.68 28.8 C-15.78 26.05 -14.85 23.31 -13.92 20.57 C-13.3 18.69 -12.68 16.82 -12.07 14.95 C-7.12 0.02 -7.12 0.02 0 0 Z M-2.36 5.13 C-5.21 11.78 -7.69 18.42 -10.05 25.25 C-10.46 26.4 -10.88 27.55 -11.31 28.73 C-14.4 37.74 -16.5 47.36 -12.92 56.57 C-9.78 61.89 -4.1 65.21 1.64 67.13 C4.2 67.23 6.72 67.28 9.28 67.28 C10.06 67.28 10.85 67.28 11.65 67.29 C14.29 67.3 16.93 67.3 19.57 67.31 C21.46 67.31 23.35 67.32 25.24 67.33 C30.38 67.34 35.52 67.35 40.65 67.36 C43.87 67.37 47.08 67.37 50.29 67.38 C60.33 67.4 70.37 67.41 80.42 67.42 C92.01 67.43 103.61 67.46 115.2 67.5 C124.16 67.53 133.13 67.54 142.09 67.55 C147.44 67.55 152.79 67.56 158.14 67.58 C163.18 67.61 168.22 67.61 173.26 67.6 C175.1 67.6 176.95 67.61 178.79 67.62 C181.32 67.64 183.85 67.63 186.37 67.62 C187.46 67.63 187.46 67.63 188.57 67.65 C195.49 67.56 201.02 65.01 205.89 60.09 C209.48 55.51 211.03 50.29 212.73 44.8 C213.07 43.72 213.42 42.65 213.78 41.55 C214.87 38.14 215.95 34.73 217.02 31.32 C217.76 29 218.5 26.69 219.25 24.38 C220.6 20.17 221.94 15.96 223.27 11.74 C223.67 10.48 223.67 10.48 224.07 9.18 C224.73 7.16 224.73 7.16 224.64 5.13 C149.73 5.13 74.82 5.13 -2.36 5.13 Z " fill="#FDFDFD" transform="translate(20.3582826256752,-0.12908130884170532)"/>
<path d="M0 0 C0.92 0.01 1.83 0.01 2.78 0.02 C4.26 0.02 4.26 0.02 5.78 0.03 C6.82 0.03 7.86 0.04 8.93 0.05 C10.5 0.06 10.5 0.06 12.1 0.06 C14.69 0.08 17.28 0.09 19.87 0.11 C19.56 1.53 19.25 2.94 18.94 4.36 C18.76 5.15 18.59 5.94 18.41 6.75 C17.68 9.91 16.79 13 15.87 16.11 C23.62 14.69 23.62 14.69 29.43 9.93 C31.06 6.73 32.45 3.41 33.87 0.11 C40.8 0.11 47.73 0.11 54.87 0.11 C55.87 2.11 55.87 2.11 55.08 4.91 C51.99 13.12 49.21 20.33 40.87 24.11 C41.21 25.06 41.21 25.06 41.56 26.02 C44.3 34.2 44.13 38.96 40.87 47.11 C33.61 47.44 26.35 47.77 18.87 48.11 C18.87 43.49 18.87 38.87 18.87 34.11 C15.9 33.45 12.93 32.79 9.87 32.11 C9.67 32.94 9.48 33.78 9.28 34.63 C9.02 35.72 8.76 36.81 8.49 37.93 C8.24 39 7.98 40.08 7.72 41.2 C6.87 44.11 6.87 44.11 4.87 47.11 C2.62 47.45 2.62 47.45 -0.14 47.41 C-1.13 47.4 -2.11 47.39 -3.13 47.38 C-4.16 47.35 -5.19 47.33 -6.26 47.3 C-7.82 47.28 -7.82 47.28 -9.41 47.26 C-11.99 47.22 -14.56 47.18 -17.13 47.11 C-14.8 38.11 -12.05 29.25 -9.26 20.39 C-8.5 17.96 -7.74 15.53 -6.98 13.11 C-6.5 11.56 -6.02 10.02 -5.53 8.48 C-5.31 7.75 -5.08 7.03 -4.85 6.28 C-2.91 0.15 -2.91 0.15 0 0 Z " fill="#FDFDFD" transform="translate(150.133056640625,11.886474609375)"/>
<path d="M0 0 C2.15 -0.34 2.15 -0.34 4.79 -0.29 C5.73 -0.28 6.67 -0.27 7.64 -0.26 C9.12 -0.23 9.12 -0.23 10.62 -0.19 C11.62 -0.17 12.61 -0.16 13.63 -0.15 C16.09 -0.11 18.54 -0.06 21 0 C22 2 22 2 21.56 3.88 C21.18 4.99 21.18 4.99 20.79 6.13 C20.54 6.86 20.29 7.58 20.04 8.33 C19.56 9.71 19.56 9.71 19.06 11.12 C18.05 14.05 17.04 16.98 16 20 C8.41 20 0.82 20 -7 20 C-6.22 17.26 -5.43 14.51 -4.62 11.69 C-4.38 10.83 -4.14 9.97 -3.89 9.08 C-3.69 8.4 -3.49 7.72 -3.29 7.01 C-3.09 6.32 -2.89 5.62 -2.69 4.9 C-2 3 -2 3 0 0 Z " fill="#FDFDFD" transform="translate(213,12)"/>
<path d="M0 0 C0.87 0.01 1.75 0.01 2.65 0.02 C3.59 0.02 4.54 0.02 5.51 0.03 C6.5 0.03 7.5 0.04 8.52 0.05 C9.52 0.06 10.52 0.06 11.54 0.06 C14.01 0.08 16.49 0.09 18.96 0.11 C19.96 2.11 19.96 2.11 19.52 3.99 C19.14 5.11 19.14 5.11 18.74 6.25 C18.5 6.97 18.25 7.7 18 8.45 C17.51 9.83 17.51 9.83 17.02 11.24 C16.01 14.17 15 17.1 13.96 20.11 C6.37 20.11 -1.22 20.11 -9.04 20.11 C-8.07 17 -7.1 13.88 -6.1 10.68 C-5.8 9.69 -5.5 8.71 -5.18 7.7 C-4.94 6.93 -4.7 6.16 -4.45 5.37 C-4.21 4.58 -3.96 3.79 -3.71 2.97 C-2.81 0.47 -2.69 0.15 0 0 Z " fill="#FDFDFD" transform="translate(121.041259765625,11.886474609375)"/>
<path d="M0 0 C0.92 0.01 1.83 0.01 2.78 0.02 C3.77 0.02 4.76 0.02 5.78 0.03 C6.82 0.03 7.86 0.04 8.93 0.05 C10.5 0.06 10.5 0.06 12.1 0.06 C14.69 0.08 17.28 0.09 19.87 0.11 C16.21 14.07 16.21 14.07 10.87 18.11 C10.54 18.44 10.21 18.77 9.87 19.11 C8.52 19.2 7.18 19.22 5.83 19.21 C5.02 19.21 4.21 19.2 3.38 19.2 C2.53 19.19 1.68 19.18 0.8 19.18 C-0.05 19.17 -0.9 19.17 -1.78 19.16 C-3.9 19.15 -6.02 19.13 -8.13 19.11 C-7.52 14.83 -6.52 10.9 -5.13 6.8 C-4.78 5.75 -4.43 4.71 -4.07 3.63 C-2.77 0.15 -2.77 0.15 0 0 Z " fill="#FDFDFD" transform="translate(206.133056640625,39.886474609375)"/>
</svg>
