<?xml version="1.0" encoding="UTF-8"?>
<!-- Generator: https://ezgif.com/webp-to-svg -->
<svg version="1.1" xmlns="http://www.w3.org/2000/svg" width="404" height="92">
<path d="M0 0 C7.59 0 15.18 0 23 0 C21.19 5.73 19.37 11.46 17.56 17.19 C16.94 19.14 16.32 21.08 15.71 23.03 C14.82 25.84 13.93 28.64 13.04 31.45 C12.77 32.31 12.49 33.18 12.21 34.07 C10.84 38.39 9.45 42.7 8 47 C10.64 47 13.28 47 16 47 C16.23 45.76 16.45 44.52 16.69 43.25 C18.75 34.24 21.15 26.25 29.13 20.99 C33.59 18.63 37.92 18.8 42.83 18.76 C44.14 18.75 44.14 18.75 45.47 18.74 C47.31 18.72 49.15 18.71 50.99 18.7 C53.79 18.69 56.6 18.64 59.4 18.6 C61.19 18.59 62.98 18.58 64.77 18.57 C65.6 18.56 66.44 18.54 67.3 18.52 C72.67 18.54 75.75 19.41 80 23 C82.67 28.35 80.83 34.03 79.06 39.38 C78.14 41.99 77.24 44.52 76 47 C78.64 47 81.28 47 84 47 C84.24 46.09 84.24 46.09 84.48 45.16 C86.07 39.19 87.8 33.27 89.62 27.38 C89.84 26.66 90.06 25.95 90.29 25.22 C91.88 20.12 91.88 20.12 93 19 C94.63 18.91 96.27 18.89 97.91 18.9 C98.9 18.91 99.89 18.91 100.91 18.91 C101.95 18.92 102.99 18.93 104.06 18.94 C105.63 18.94 105.63 18.94 107.23 18.95 C109.82 18.96 112.41 18.98 115 19 C113.65 25.5 111.92 31.75 109.88 38.06 C109.6 38.93 109.32 39.79 109.04 40.69 C108.36 42.79 107.68 44.9 107 47 C111.95 46.51 111.95 46.51 117 46 C119.97 37.09 122.94 28.18 126 19 C133.26 19 140.52 19 148 19 C145.75 29.13 145.75 29.13 144.49 33.04 C144.1 34.28 144.1 34.28 143.69 35.54 C143.42 36.38 143.15 37.21 142.88 38.06 C142.6 38.93 142.32 39.79 142.04 40.69 C141.36 42.79 140.68 44.9 140 47 C143.63 47 147.26 47 151 47 C151.14 45.61 151.14 45.61 151.28 44.18 C152.03 38.94 153.84 34.05 155.56 29.06 C157.26 24.08 157.26 24.08 159 19 C166.59 19 174.18 19 182 19 C178.96 29.37 175.87 39.71 172.38 49.94 C171.96 51.19 171.96 51.19 171.54 52.46 C169.77 57.54 167.99 62.04 163.3 65.11 C160.17 66.32 157.5 66.26 154.14 66.27 C153.45 66.28 152.76 66.28 152.05 66.29 C149.75 66.31 147.44 66.31 145.13 66.31 C143.47 66.31 141.82 66.32 140.16 66.33 C135.66 66.35 131.16 66.36 126.67 66.37 C123.86 66.37 121.05 66.38 118.24 66.38 C108.43 66.41 98.63 66.42 88.82 66.43 C79.68 66.43 70.55 66.46 61.41 66.5 C53.56 66.54 45.71 66.55 37.87 66.55 C33.18 66.55 28.5 66.56 23.81 66.59 C19.4 66.62 15 66.62 10.59 66.6 C8.97 66.6 7.35 66.61 5.74 66.62 C3.53 66.64 1.32 66.63 -0.89 66.61 C-2.74 66.62 -2.74 66.62 -4.63 66.62 C-9.55 65.71 -12.34 63.19 -15.38 59.19 C-17.49 51.77 -15.09 45.04 -12.75 38.01 C-12.26 36.47 -12.26 36.47 -11.75 34.9 C-10.7 31.63 -9.63 28.38 -8.56 25.12 C-7.85 22.91 -7.13 20.7 -6.42 18.49 C-5.12 14.46 -3.81 10.44 -2.49 6.41 C-2.23 5.61 -1.96 4.8 -1.69 3.97 C-1 2 -1 2 0 0 Z M41 38 C40.01 40.97 39.02 43.94 38 47 C43.28 47 48.56 47 54 47 C54.66 44.03 55.32 41.06 56 38 C51.05 38 46.1 38 41 38 Z " fill="#FCFCFC" transform="translate(205,13)"/>
<path d="M0 0 C0.92 0.01 1.83 0.01 2.78 0.02 C4.26 0.02 4.26 0.02 5.78 0.03 C6.82 0.03 7.86 0.04 8.93 0.05 C10.5 0.06 10.5 0.06 12.1 0.06 C14.69 0.08 17.28 0.09 19.87 0.11 C18.51 6.56 16.84 12.82 14.87 19.11 C15.53 19.09 16.2 19.07 16.88 19.05 C19.92 18.97 22.96 18.91 25.99 18.86 C27.04 18.83 28.09 18.8 29.16 18.76 C35.4 18.68 39.17 18.85 43.87 23.11 C46.82 27.54 47.39 30.85 46.87 36.11 C46.01 39.5 44.98 42.81 43.87 46.11 C45.85 46.11 47.83 46.11 49.87 46.11 C50.18 45.1 50.5 44.09 50.82 43.04 C51.25 41.69 51.68 40.34 52.12 38.99 C52.32 38.32 52.53 37.66 52.74 36.97 C55.16 29.49 58.82 24.01 65.77 20.02 C68.01 19.05 69.55 18.84 71.99 18.81 C72.79 18.79 73.59 18.78 74.42 18.76 C75.7 18.75 75.7 18.75 77.02 18.74 C77.91 18.73 78.8 18.72 79.71 18.72 C81.59 18.7 83.48 18.69 85.36 18.69 C88.23 18.68 91.09 18.63 93.96 18.58 C95.79 18.57 97.62 18.56 99.45 18.55 C100.73 18.53 100.73 18.53 102.04 18.5 C106.24 18.53 109.03 18.8 112.39 21.46 C115.63 24.93 115.99 26.35 115.87 31.11 C114.91 35.4 113.58 39.52 112.18 43.68 C111.83 44.79 111.47 45.9 111.11 47.04 C108.53 54.91 106.47 61.09 98.86 65.28 C95.5 66.69 92.13 66.64 88.54 66.57 C87.34 66.57 87.34 66.57 86.12 66.57 C83.49 66.57 80.87 66.54 78.25 66.5 C76.42 66.5 74.59 66.49 72.76 66.49 C67.96 66.47 63.17 66.43 58.37 66.39 C53.47 66.35 48.57 66.33 43.67 66.31 C34.07 66.27 24.47 66.2 14.87 66.11 C15.88 61.38 16.89 56.69 18.37 52.08 C18.64 51.25 18.9 50.42 19.18 49.57 C19.44 48.74 19.71 47.91 19.99 47.05 C20.27 46.19 20.55 45.32 20.83 44.43 C21.51 42.32 22.19 40.22 22.87 38.11 C17.92 38.11 12.97 38.11 7.87 38.11 C7.48 39.6 7.08 41.08 6.68 42.61 C5.3 47.69 3.8 52.72 2.24 57.74 C2.02 58.45 1.81 59.16 1.58 59.89 C-0.01 64.99 -0.01 64.99 -1.13 66.11 C-2.77 66.2 -4.41 66.22 -6.04 66.21 C-7.03 66.21 -8.02 66.2 -9.04 66.2 C-10.08 66.19 -11.12 66.18 -12.2 66.18 C-13.24 66.17 -14.29 66.17 -15.36 66.16 C-17.95 66.15 -20.54 66.13 -23.13 66.11 C-21.78 59.61 -20.05 53.35 -18.02 47.03 C-17.72 46.1 -17.42 45.16 -17.11 44.2 C-16.16 41.23 -15.21 38.27 -14.26 35.3 C-13.63 33.32 -12.99 31.35 -12.36 29.37 C-10.63 23.95 -8.89 18.53 -7.13 13.11 C-6.91 12.42 -6.68 11.72 -6.45 11 C-5.89 9.26 -5.32 7.52 -4.75 5.79 C-4.45 4.89 -4.16 3.99 -3.86 3.06 C-2.77 0.15 -2.77 0.15 0 0 Z M74.87 38.11 C74.21 41.08 73.55 44.05 72.87 47.11 C77.82 47.11 82.77 47.11 87.87 47.11 C88.86 44.14 89.85 41.17 90.87 38.11 C85.59 38.11 80.31 38.11 74.87 38.11 Z " fill="#FDFDFD" transform="translate(41.133056640625,12.886474609375)"/>
<path d="M0 0 C16.5 0 33 0 50 0 C48.19 6.65 46.5 12.68 44 19 C44.63 19.03 45.26 19.05 45.91 19.08 C53.56 19.59 58.68 21.79 65 26 C65.48 25.66 65.97 25.32 66.47 24.98 C67.14 24.53 67.81 24.08 68.5 23.62 C69.47 22.96 69.47 22.96 70.47 22.29 C76.88 19.03 83.43 18.69 90.47 18.7 C91.35 18.69 92.23 18.69 93.13 18.69 C94.98 18.68 96.83 18.68 98.68 18.68 C101.49 18.69 104.3 18.66 107.11 18.64 C108.92 18.64 110.73 18.64 112.53 18.64 C113.78 18.62 113.78 18.62 115.05 18.61 C120.67 18.65 124.84 19.76 130 22 C130.37 20.17 130.37 20.17 130.75 18.31 C132.2 12.13 134.13 6.07 136 0 C162.4 0 188.8 0 216 0 C213.75 10.13 213.75 10.13 212.38 14.56 C212.11 15.41 211.85 16.26 211.59 17.13 C211.39 17.75 211.2 18.36 211 19 C212.17 18.98 213.34 18.97 214.54 18.95 C218.91 18.9 223.28 18.86 227.65 18.84 C229.54 18.82 231.42 18.8 233.31 18.77 C236.03 18.74 238.75 18.72 241.47 18.71 C242.3 18.69 243.14 18.68 243.99 18.66 C249.66 18.66 253.8 19.74 259 22 C259.33 21.01 259.66 20.02 260 19 C297.95 19 335.9 19 375 19 C372.75 29.13 372.75 29.13 371.66 32.59 C371.41 33.38 371.17 34.16 370.92 34.96 C370.66 35.78 370.4 36.59 370.14 37.43 C369.86 38.29 369.59 39.16 369.31 40.06 C368.73 41.89 368.15 43.71 367.57 45.54 C366.69 48.29 365.83 51.05 364.96 53.81 C355.57 83.55 355.57 83.55 346.04 89.15 C337.87 92.87 329.67 92.56 320.9 92.52 C319.18 92.52 317.46 92.53 315.75 92.54 C311.11 92.56 306.48 92.55 301.85 92.54 C296.99 92.53 292.13 92.54 287.27 92.54 C279.11 92.55 270.96 92.54 262.81 92.52 C253.39 92.5 243.96 92.51 234.54 92.53 C226.44 92.55 218.34 92.55 210.24 92.54 C205.41 92.53 200.57 92.53 195.74 92.55 C191.2 92.56 186.66 92.55 182.12 92.53 C180.45 92.52 178.79 92.52 177.12 92.53 C174.85 92.54 172.57 92.53 170.3 92.51 C168.39 92.51 168.39 92.51 166.44 92.5 C161.5 91.78 158.48 89.48 155 86 C153.7 86.93 153.7 86.93 152.38 87.88 C146.83 91.37 142.27 92.25 135.75 92.24 C134.69 92.24 134.69 92.24 133.6 92.25 C131.25 92.25 128.89 92.24 126.53 92.23 C124.83 92.23 123.14 92.23 121.44 92.23 C116.85 92.23 112.25 92.22 107.66 92.2 C102.86 92.19 98.05 92.19 93.25 92.19 C84.15 92.18 75.06 92.16 65.96 92.14 C55.61 92.12 45.25 92.11 34.9 92.1 C13.6 92.08 -7.7 92.04 -29 92 C-28.53 90.25 -28.05 88.51 -27.58 86.76 C-27.31 85.79 -27.05 84.82 -26.78 83.81 C-25.76 80.14 -24.65 76.51 -23.5 72.88 C-23.27 72.15 -23.04 71.42 -22.81 70.66 C-22.06 68.3 -21.31 65.93 -20.56 63.56 C-20.3 62.75 -20.05 61.93 -19.78 61.09 C-15.28 46.84 -10.61 32.65 -5.83 18.49 C-5.59 17.77 -5.35 17.05 -5.1 16.3 C-4.45 14.37 -3.79 12.43 -3.14 10.5 C-2.01 7.02 -1 3.51 0 0 Z M5 5 C1.8 12.08 1.8 12.08 -0.81 19.26 C-1.11 20.19 -1.41 21.12 -1.71 22.08 C-2.02 23.06 -2.33 24.04 -2.64 25.04 C-3.14 26.61 -3.14 26.61 -3.65 28.21 C-4.71 31.53 -5.76 34.86 -6.81 38.19 C-7.51 40.37 -8.2 42.55 -8.89 44.73 C-10.26 49.04 -11.63 53.34 -12.99 57.65 C-14.34 61.93 -15.7 66.21 -17.07 70.48 C-17.4 71.51 -17.73 72.53 -18.06 73.58 C-18.68 75.52 -19.3 77.46 -19.93 79.4 C-20.2 80.26 -20.47 81.12 -20.76 82 C-21.12 83.13 -21.12 83.13 -21.49 84.28 C-22.05 85.86 -22.05 85.86 -22 87 C-0.9 87.09 20.19 87.16 41.29 87.21 C51.09 87.23 60.88 87.26 70.68 87.3 C79.22 87.34 87.76 87.37 96.3 87.38 C100.82 87.38 105.34 87.39 109.86 87.42 C114.12 87.45 118.38 87.46 122.64 87.45 C124.2 87.45 125.76 87.46 127.31 87.48 C136.92 87.57 145.06 87.34 152.56 80.75 C153.04 80.17 153.51 79.59 154 79 C156.97 80.31 158.62 81.64 160.72 84.08 C166.42 89.02 174.32 87.83 181.43 87.76 C183.1 87.77 184.78 87.78 186.46 87.79 C191.01 87.81 195.56 87.8 200.11 87.77 C204.88 87.75 209.65 87.77 214.42 87.77 C222.44 87.78 230.45 87.76 238.47 87.73 C247.71 87.69 256.96 87.69 266.21 87.71 C275.12 87.74 284.04 87.73 292.95 87.71 C296.73 87.7 300.52 87.7 304.3 87.71 C308.77 87.72 313.23 87.71 317.7 87.68 C319.33 87.67 320.96 87.67 322.59 87.68 C332.87 87.73 341.66 87.16 349.44 79.64 C351.31 76.47 352.67 73.25 353.88 69.8 C354.14 69.11 354.39 68.41 354.65 67.7 C357.3 60.32 359.75 52.89 362.15 45.43 C362.89 43.14 363.64 40.86 364.38 38.57 C364.86 37.1 365.33 35.63 365.8 34.17 C366.03 33.49 366.25 32.81 366.48 32.11 C367.38 29.28 368 27 368 24 C333.35 24 298.7 24 263 24 C262.34 25.65 261.68 27.3 261 29 C260.46 28.72 259.91 28.45 259.36 28.16 C258.64 27.8 257.92 27.44 257.19 27.06 C256.13 26.52 256.13 26.52 255.04 25.97 C250.58 23.85 246.55 23.84 241.71 23.83 C240.48 23.83 240.48 23.83 239.23 23.82 C237.5 23.82 235.77 23.81 234.03 23.81 C231.41 23.81 228.78 23.79 226.15 23.78 C224.46 23.77 222.77 23.77 221.09 23.77 C220.31 23.76 219.54 23.76 218.74 23.75 C213.27 23.77 208.29 24.62 203 26 C203.2 25.38 203.4 24.76 203.6 24.12 C204.41 21.62 205.2 19.12 206 16.62 C206.29 15.74 206.57 14.85 206.87 13.93 C207.14 13.08 207.41 12.23 207.69 11.35 C207.94 10.57 208.19 9.78 208.45 8.97 C209.09 7.02 209.09 7.02 209 5 C186.23 5 163.46 5 140 5 C135.19 17.3 135.19 17.3 133 30 C132.4 29.65 131.79 29.3 131.17 28.94 C129.97 28.26 129.97 28.26 128.75 27.56 C127.57 26.88 127.57 26.88 126.36 26.19 C121.6 23.79 116.94 23.81 111.68 23.76 C110.47 23.75 110.47 23.75 109.22 23.74 C107.5 23.72 105.79 23.71 104.07 23.7 C102.33 23.69 100.59 23.67 98.85 23.64 C85.83 23.42 75.02 23.75 65 33 C64.34 33 63.68 33 63 33 C62.32 32.26 61.64 31.52 60.94 30.75 C56.69 26.42 51.79 24.21 45.75 23.75 C42.82 23.75 39.92 23.82 37 24 C37.54 22.45 37.54 22.45 38.09 20.86 C38.56 19.49 39.03 18.12 39.5 16.75 C39.74 16.07 39.98 15.39 40.22 14.68 C41.39 11.24 42 8.68 42 5 C29.79 5 17.58 5 5 5 Z " fill="#FDFDFD" transform="translate(29,0)"/>
<path d="M0 0 C0.92 0.01 1.83 0.01 2.78 0.02 C4.26 0.02 4.26 0.02 5.78 0.03 C6.82 0.03 7.86 0.04 8.93 0.05 C10.5 0.06 10.5 0.06 12.1 0.06 C14.69 0.08 17.28 0.09 19.87 0.11 C18.62 6.15 17.07 12.01 15.19 17.88 C14.93 18.69 14.68 19.49 14.42 20.31 C13.61 22.85 12.8 25.39 11.99 27.93 C11.46 29.61 10.92 31.3 10.39 32.99 C9.12 36.99 7.84 40.99 6.55 44.98 C5.92 46.94 5.29 48.91 4.66 50.88 C4.32 51.95 3.97 53.02 3.61 54.12 C3.17 55.47 3.17 55.47 2.72 56.86 C1.34 60.52 -0.53 62.99 -3.71 65.22 C-7.4 66.58 -10.99 66.32 -14.88 66.24 C-15.68 66.23 -16.47 66.22 -17.29 66.21 C-19.23 66.19 -21.18 66.15 -23.13 66.11 C-21.61 58.57 -19.4 51.34 -17.04 44.02 C-16.44 42.18 -16.44 42.18 -15.84 40.3 C-15.01 37.72 -14.18 35.14 -13.35 32.56 C-12.28 29.26 -11.21 25.94 -10.15 22.63 C-9.14 19.47 -8.12 16.31 -7.1 13.14 C-6.72 11.95 -6.33 10.76 -5.94 9.53 C-5.59 8.44 -5.23 7.35 -4.87 6.22 C-4.56 5.26 -4.24 4.29 -3.92 3.3 C-2.78 0.15 -2.78 0.15 0 0 Z " fill="#FDFDFD" transform="translate(177.133056640625,12.886474609375)"/>
</svg>
