<?xml version="1.0" encoding="UTF-8"?>
<svg version="1.1" xmlns="http://www.w3.org/2000/svg" width="184" height="43">
<path d="M0 0 C8.20342205 7.79325095 8.20342205 7.79325095 8.703125 13.828125 C8.80136122 19.68955288 8.70471001 24.26749342 5.5 29.375 C-0.30650593 34.70972732 -5.05522684 36.74799226 -12.93359375 36.65625 C-19.09477354 35.98105221 -23.61975417 32.03129499 -27.5 27.375 C-30.07380037 21.9822754 -30.61788181 15.91919345 -28.8125 10.1953125 C-26.60283361 5.31563255 -23.86425262 2.43926248 -19.5 -0.625 C-13.28539389 -2.69653537 -5.9411618 -2.75839655 0 0 Z M-11.5 5.375 C-13.91121859 7.33133975 -13.91121859 7.33133975 -13.625 11 C-13.58375 12.11375 -13.5425 13.2275 -13.5 14.375 C-15.81 14.375 -18.12 14.375 -20.5 14.375 C-21.09070014 16.32103274 -21.09070014 16.32103274 -21.5 18.375 C-20.31575674 19.79077477 -20.31575674 19.79077477 -16.9375 19.4375 C-15.2359375 19.4065625 -15.2359375 19.4065625 -13.5 19.375 C-13.5 22.015 -13.5 24.655 -13.5 27.375 C-11.84385343 27.75718767 -10.17542976 28.08895102 -8.5 28.375 C-7.29438816 27.39232141 -7.29438816 27.39232141 -7.40234375 25.52734375 C-7.41394531 24.79644531 -7.42554688 24.06554687 -7.4375 23.3125 C-7.458125 22.013125 -7.47875 20.71375 -7.5 19.375 C-4.86 19.375 -2.22 19.375 0.5 19.375 C0.83 18.055 1.16 16.735 1.5 15.375 C-1.45664519 13.8966774 -4.24229737 14.31467217 -7.5 14.375 C-7.5 12.065 -7.5 9.755 -7.5 7.375 C-8.82 6.715 -10.14 6.055 -11.5 5.375 Z " fill="#000000" transform="translate(124.5,3.625)"/>
<path d="M0 0 C5.50023474 3.19013615 10.0933931 7.71767929 12.125 13.8125 C13.09894731 21.22189659 12.11086499 26.50764582 7.88671875 32.7109375 C3.98673139 37.36325058 0.13195494 38.85909969 -5.8125 39.6875 C-12.38792723 40.10720812 -18.57787014 38.96430449 -23.875 34.8125 C-28.83839662 29.1460727 -30.20794039 24.44266859 -30.09375 16.86328125 C-29.50931955 11.38424574 -26.70631958 6.64381958 -22.875 2.8125 C-16.15832483 -2.05788532 -7.77895915 -2.94888648 0 0 Z M-22.8125 11.1875 C-24.75683338 15.99114717 -25.28457304 19.41513316 -23.8125 24.4375 C-21.30090618 28.8125344 -18.44976963 31.52511519 -13.875 33.8125 C-8.92017906 34.35610446 -5.00374148 34.37687074 -0.5 32.125 C4.01097951 28.15104186 6.81526354 25.20923904 7.27734375 18.9296875 C6.92995296 14.1018462 4.90799253 10.4380539 1.35546875 7.19921875 C-2.52872103 4.47951979 -6.07634731 2.99429912 -10.85546875 3.32421875 C-15.79964532 4.51961927 -19.63250519 7.28944185 -22.8125 11.1875 Z " fill="#000000" transform="translate(76.875,2.1875)"/>
<path d="M0 0 C4.4597994 2.31248858 6.85283362 4.47764957 9 9 C9.08203125 12.3046875 9.08203125 12.3046875 8.8125 15.875 C8.67320652 20.78638487 8.70050332 23.62172638 12 27.375 C12.99 28.24125 13.98 29.1075 15 30 C13.125 34.875 13.125 34.875 12 36 C8.91361798 36.33366292 7.38463525 36.22870204 4.6875 34.625 C4.130625 34.08875 3.57375 33.5525 3 33 C3 32.34 3 31.68 3 31 C0.03318087 30.01106029 -2.21059547 29.83766135 -5.3125 29.6875 C-11.28303375 29.18272568 -14.81182811 27.4899887 -18.8125 22.9375 C-21.32999915 18.83000138 -21.47997789 14.6842287 -21 10 C-19.20097227 4.80280878 -16.74934327 2.67150559 -12 0 C-7.80543061 -1.3981898 -4.28464964 -0.94482018 0 0 Z M-12.375 7.625 C-14.43188056 10.63121004 -15.0732472 12.3376398 -15 16 C-12.83491848 19.37498001 -11.26535004 21.49385999 -7.5 23 C-4.49178139 23 -2.64278432 22.42853206 0 21 C2.50031654 17.24952518 2.53603554 15.44143734 2 11 C0.08333333 7.91666667 0.08333333 7.91666667 -3 6 C-6.99807408 5.36872515 -9.00735985 5.32082516 -12.375 7.625 Z " fill="#000000" transform="translate(26,4)"/>
<path d="M0 0 C3.21715188 1.14611036 4.37090018 2.6597691 5.875 5.66796875 C5.95378335 10.07983608 5.35138507 12.05925449 2.625 15.54296875 C-0.1362978 17.67669886 -1.67356095 18.47622214 -5.125 18.66796875 C-6.125 17.66796875 -6.125 17.66796875 -6.3125 15.23046875 C-6.125 12.66796875 -6.125 12.66796875 -4.125 10.66796875 C-3.135 10.66796875 -2.145 10.66796875 -1.125 10.66796875 C-1.125 9.34796875 -1.125 8.02796875 -1.125 6.66796875 C-2.445 6.66796875 -3.765 6.66796875 -5.125 6.66796875 C-5.785 8.31796875 -6.445 9.96796875 -7.125 11.66796875 C-8.775 11.33796875 -10.425 11.00796875 -12.125 10.66796875 C-11.89327505 6.65140303 -11.65842981 4.31455033 -9.0625 1.16796875 C-5.62656541 -0.58655104 -3.73020966 -0.71354389 0 0 Z " fill="#000000" transform="translate(71.125,8.33203125)"/>
<path d="M0 0 C1.06734375 -0.00257812 2.1346875 -0.00515625 3.234375 -0.0078125 C4.91273438 0.00378906 4.91273438 0.00378906 6.625 0.015625 C7.74390625 0.00789063 8.8628125 0.00015625 10.015625 -0.0078125 C11.08296875 -0.00523438 12.1503125 -0.00265625 13.25 0 C14.23226562 0.00225586 15.21453125 0.00451172 16.2265625 0.00683594 C18.625 0.265625 18.625 0.265625 20.625 2.265625 C20.295 3.915625 19.965 5.565625 19.625 7.265625 C11.045 7.265625 2.465 7.265625 -6.375 7.265625 C-6.705 5.615625 -7.035 3.965625 -7.375 2.265625 C-4.76631631 -0.34305869 -3.62967636 0.00833587 0 0 Z " fill="#000000" transform="translate(148.375,16.734375)"/>
<path d="M0 0 C1.17111328 -0.01224609 2.34222656 -0.02449219 3.54882812 -0.03710938 C4.66580078 -0.03904297 5.78277344 -0.04097656 6.93359375 -0.04296875 C7.96411865 -0.04707764 8.99464355 -0.05118652 10.05639648 -0.05541992 C12.5625 0.1875 12.5625 0.1875 14.5625 2.1875 C14.3125 4.25 14.3125 4.25 13.5625 6.1875 C11.02803127 7.45473437 9.24023046 7.31691328 6.40625 7.3203125 C5.38402344 7.32160156 4.36179688 7.32289062 3.30859375 7.32421875 C2.23738281 7.32035156 1.16617188 7.31648438 0.0625 7.3125 C-1.54431641 7.31830078 -1.54431641 7.31830078 -3.18359375 7.32421875 C-4.20582031 7.32292969 -5.22804687 7.32164063 -6.28125 7.3203125 C-7.22162109 7.31918457 -8.16199219 7.31805664 -9.13085938 7.31689453 C-11.4375 7.1875 -11.4375 7.1875 -13.4375 6.1875 C-13.480221 4.52138095 -13.47813832 2.85367115 -13.4375 1.1875 C-10.84794843 -1.40205157 -3.48572397 0.00191208 0 0 Z " fill="#000000" transform="translate(154.4375,28.8125)"/>
<path d="M0 0 C8.58 0 17.16 0 26 0 C26.33 1.65 26.66 3.3 27 5 C24.43617721 7.56382279 23.43625685 7.25703311 19.87890625 7.265625 C18.86119141 7.26820312 17.84347656 7.27078125 16.79492188 7.2734375 C15.72822266 7.26570312 14.66152344 7.25796875 13.5625 7.25 C11.96825195 7.26160156 11.96825195 7.26160156 10.34179688 7.2734375 C9.32279297 7.27085938 8.30378906 7.26828125 7.25390625 7.265625 C5.85120483 7.26224121 5.85120483 7.26224121 4.42016602 7.25878906 C2 7 2 7 -1 5 C-0.67 3.35 -0.34 1.7 0 0 Z " fill="#000000" transform="translate(142,6)"/>
<path d="M0 0 C1.2065625 0.0309375 1.2065625 0.0309375 2.4375 0.0625 C3.0625 2.4375 3.0625 2.4375 3.4375 5.0625 C2.7775 5.7225 2.1175 6.3825 1.4375 7.0625 C-0.6875 6.6875 -0.6875 6.6875 -2.5625 6.0625 C-2.94468767 4.40635343 -3.27645102 2.73792976 -3.5625 1.0625 C-2.5625 0.0625 -2.5625 0.0625 0 0 Z " fill="#000003" transform="translate(174.5625,28.9375)"/>
<path d="M0 0 C2.125 0.375 2.125 0.375 4 1 C4.38218767 2.65614657 4.71395102 4.32457024 5 6 C4 7 4 7 1.4375 7.0625 C0.2309375 7.0315625 0.2309375 7.0315625 -1 7 C-1.625 4.625 -1.625 4.625 -2 2 C-1.34 1.34 -0.68 0.68 0 0 Z " fill="#000000" transform="translate(173,17)"/>
<path d="M0 0 C1.2065625 0.0309375 1.2065625 0.0309375 2.4375 0.0625 C2.81968767 1.71864657 3.15145102 3.38707024 3.4375 5.0625 C2.4375 6.0625 2.4375 6.0625 -0.125 6.125 C-1.3315625 6.0940625 -1.3315625 6.0940625 -2.5625 6.0625 C-2.94468767 4.40635343 -3.27645102 2.73792976 -3.5625 1.0625 C-2.5625 0.0625 -2.5625 0.0625 0 0 Z " fill="#000000" transform="translate(174.5625,5.9375)"/>
<path d="M0 0 C1.65 0.33 3.3 0.66 5 1 C5 2.65 5 4.3 5 6 C2 7 2 7 -1 6 C-1.33 5.01 -1.66 4.02 -2 3 C-1.34 2.01 -0.68 1.02 0 0 Z " fill="#000000" transform="translate(66,28)"/>
</svg>
