<?xml version="1.0" standalone="no"?>
<!DOCTYPE svg PUBLIC "-//W3C//DTD SVG 20010904//EN"
 "http://www.w3.org/TR/2001/REC-SVG-20010904/DTD/svg10.dtd">
<svg version="1.0" xmlns="http://www.w3.org/2000/svg"
 width="216.000000pt" height="53.000000pt" viewBox="0 0 216.000000 53.000000"
 preserveAspectRatio="xMidYMid meet">

<g transform="translate(0.000000,53.000000) scale(0.100000,-0.100000)"
fill="#000000" stroke="none">
<path d="M72 474 c-21 -15 -22 -20 -22 -195 0 -105 4 -188 10 -200 10 -19 32
-19 1030 -19 913 0 1020 2 1034 16 13 13 16 45 16 195 0 166 -1 180 -20 199
-20 20 -33 20 -1023 20 -891 0 -1005 -2 -1025 -16z m348 -82 c0 -16 -55 -60
-94 -76 -45 -19 -90 -20 -152 -5 -43 11 -44 13 -44 50 l0 39 145 0 c80 0 145
-4 145 -8z m235 -47 c38 -30 73 -55 78 -55 4 0 7 10 6 23 -1 12 -1 37 -1 55
l2 33 53 -3 52 -3 5 -95 5 -95 49 80 c72 117 70 115 140 115 69 -1 65 3 135
-117 23 -40 46 -73 51 -73 6 0 10 41 10 95 l0 95 53 0 c46 0 59 -5 93 -33 74
-61 65 -61 124 -12 50 41 60 45 107 45 l53 0 0 -124 c0 -138 2 -135 -72 -128
l-38 4 0 49 c0 27 -3 49 -6 49 -4 0 -24 -16 -45 -35 -22 -19 -45 -35 -52 -35
-7 0 -32 16 -54 35 -23 19 -44 35 -47 35 -3 0 -6 -22 -6 -50 0 -57 11 -53
-130 -50 -49 1 -80 6 -91 16 -22 20 -162 20 -179 -1 -10 -12 -36 -15 -117 -15
l-104 0 -62 50 c-34 28 -65 50 -69 50 -5 0 -8 -22 -8 -50 l0 -50 -41 0 c-36 0
-41 3 -55 36 -24 58 -27 91 -14 154 l13 60 47 0 c41 0 54 -6 115 -55z m1373
18 l3 -33 -105 0 c-141 0 -149 -18 -9 -22 l108 -3 3 -32 3 -33 -93 -1 c-113
-2 -112 -2 -115 -14 -3 -11 -1 -11 120 -14 l87 -1 0 -30 0 -30 -165 0 -165 0
0 125 0 125 163 -2 162 -3 3 -32z m-1854 -145 c47 -55 46 -68 -4 -68 -40 0
-40 0 -40 39 0 22 -3 46 -6 55 -11 29 14 16 50 -26z"/>
<path d="M1020 281 c-15 -28 -13 -31 20 -31 17 0 30 3 30 6 0 12 -21 44 -30
44 -5 0 -14 -9 -20 -19z"/>
</g>
</svg>
