<?xml version="1.0" encoding="UTF-8"?>
<svg id="Layer_1" xmlns="http://www.w3.org/2000/svg" version="1.1" viewBox="0 0 66 25">
  <!-- Generator: Adobe Illustrator 30.1.0, SVG Export Plug-In . SVG Version: 2.1.1 Build 136)  -->
  <path d="M65.9,15.3v7.9c0,.5-.1,1.1-.4,1.4,0,.2-.4.2-.7.2h-27.8c-.4,0-.7,0-.5-.6,1.7-3.1,3.5-6.1,5.3-9.2.6-1,1.7-.3,2.6-.6,1.2-.2,1.3-1.1,1.8-2.1s.7-1.2,1-1.7c1.5-2.5,2.9-5.1,4.4-7.6,1.5-2.6,1.2-3.2,4.3-3h.1c3.1,0,6.2,0,9.3.2.5,0,.6.5.6,1v8.1c-.2.7-.6,1.3-1,1.9-.4.8-.9,1.6-1.3,2.3-.2.3-.5.8,0,.8.6.1,1.6-.2,2.1.2.2.2.2.5.2.8Z"/>
  <path d="M44.4.1h6.8c.2,0,.4,0,.4.2s-.2.6-.3.8c-.2.3-.3.6-.5.9-1.3,2.2-2.5,4.4-3.8,6.6-.1.3-.3.5-.5.6-.5.3-1.1.1-1.6.1s-1,0-1.4.5c-.4.4-.6,1-.9,1.5-2.4,4.2-4.9,8.4-7.3,12.6-.6,1.1-1.2,1-2.2,1H14.8c-1,0-.3-1,0-1.5,1.1-1.9,2.2-3.8,3.4-5.8.5-.8.9-1.6,1.4-2.4.2-.3.3-.6.5-.7.5-.2,1.1,0,1.6,0,1.5.1,1.6-.9,2.3-2.1.7-1.3,1.5-2.5,2.2-3.8,1.2-2.1,2.4-4.2,3.6-6.2.8-1.7,1-2.4,3-2.4h.1c3.8,0,7.7,0,11.5.1Z"/>
  <path d="M28.7.2c.8,0,.2.9,0,1.3-.5.8-1,1.7-1.5,2.5-.8,1.3-1.5,2.7-2.3,4-.3.4-.5.9-.9,1.2-.7.4-1.5,0-2.2.2-1.2.3-1.5,1.4-2.1,2.5-.3.7-.7,1.3-1.1,1.9-1.9,3.3-3.9,6.6-5.8,10-.6,1.4-1.8,1.1-3,1.1H.8c-.3,0-.6,0-.7-.2-.2-.2-.2-.5-.2-.8v-3.8c0-6.1-.4-4.3,2.5-9.4.2-.4.7-1,0-1.1h-1.3c-.5,0-1.1,0-1.1-.7V1.2c0-.3,0-.6.2-.8s.5-.2.7-.2h27.8Z"/>
</svg>